<svg width="276" height="219" viewBox="0 0 276 219" fill="none" xmlns="http://www.w3.org/2000/svg">
<path d="M138 218.977C214.215 218.977 276 215.37 276 210.92C276 206.47 214.215 202.863 138 202.863C61.7847 202.863 0 206.47 0 210.92C0 215.37 61.7847 218.977 138 218.977Z" fill="#F5F5F5"/>
<path d="M58.5547 75.2025L63.4372 72.4124C63.4372 72.4124 65.3162 69.5156 65.8785 69.3804C66.4408 69.2452 72.633 69.3804 72.633 69.3804C72.633 69.3804 71.6935 73.3875 71.601 74.1847C71.5084 74.9818 65.5938 74.1847 65.5938 74.1847L60.8038 77.0388L58.5547 75.2025Z" fill="#EBB376"/>
<path d="M13.0819 205.026L7.97159 204.008C7.78654 204.008 7.62284 204.143 7.58013 204.321L6.20647 209.431C6.12818 209.794 6.36305 210.157 6.72604 210.236C6.77586 210.243 6.82568 210.25 6.8755 210.25C8.68333 210.221 9.99294 210.107 12.2634 210.107C13.6584 210.107 17.8719 210.257 19.8008 210.257C21.7296 210.257 21.9787 208.349 21.1887 208.179C17.6442 207.41 14.9823 206.335 13.8506 205.325C13.6371 205.132 13.3666 205.026 13.0819 205.033V205.026Z" fill="#263238"/>
<path d="M75.6249 204.883H70.0448C69.8598 204.883 69.6961 205.018 69.6534 205.196L68.7494 209.289C68.6711 209.651 68.906 210.014 69.269 210.093C69.3188 210.1 69.3687 210.107 69.4185 210.107C71.2263 210.079 72.5359 209.965 74.8064 209.965C76.2014 209.965 80.4149 210.114 82.3437 210.114C84.2726 210.114 84.5217 208.207 83.7316 208.036C80.1872 207.267 77.5252 206.192 76.3936 205.182C76.18 204.99 75.9096 204.883 75.6249 204.89V204.883Z" fill="#263238"/>
<path d="M22.9328 110.868L46.5698 104.875C51.9293 116.576 71.5947 164.619 76.3634 204.59L68.3634 206.619C68.3634 206.619 54.2069 147.672 42.3278 130.476C42.3278 130.476 41.6873 156.647 40.4061 160.448C39.3456 163.58 15.0254 205.487 15.0254 205.487L7.125 204.59C7.125 204.59 26.9471 161.814 28.1499 156.491C28.9755 152.861 25.3599 126.199 25.3599 126.199C24.7193 123.814 23.7727 113.978 23.7727 113.978C23.7727 113.978 23.0609 111.366 22.9399 110.875L22.9328 110.868Z" fill="#407BFF"/>
<path opacity="0.2" d="M42.3249 130.475C44.0758 133.009 45.8266 136.283 47.5562 140.027C45.9263 130.817 40.8516 121.898 40.8516 121.898L42.3249 130.475Z" fill="black"/>
<path d="M22.9328 110.868L46.5698 104.875C51.9293 116.576 71.5947 164.619 76.3634 204.59L68.3634 206.619C68.3634 206.619 54.2069 147.672 42.3278 130.476C42.3278 130.476 41.6873 156.647 40.4061 160.448C39.3456 163.58 15.0254 205.487 15.0254 205.487L7.125 204.59C7.125 204.59 26.9471 161.814 28.1499 156.491C28.9755 152.861 25.3599 126.199 25.3599 126.199C24.7193 123.814 23.7727 113.978 23.7727 113.978C23.7727 113.978 23.0609 111.366 22.9399 110.875L22.9328 110.868Z" fill="#00B386"/>
<path d="M64.0127 75.6059C64.0127 75.6059 53.2369 82.8799 50.397 83.2642C49.2653 83.4208 46.9308 83.0365 44.518 82.524C40.8597 81.7411 37.0447 80.645 37.0447 80.645L36.5678 77.0365L36.0625 73.1788C36.9166 72.8941 48.0625 77.4778 49.728 78.1326C51.3935 78.7874 62.1621 72.4102 62.1621 72.4102L64.0127 75.6059Z" fill="#44475B"/>
<path d="M30.691 109.203L31.3885 111.936L23.7586 113.972L23.0469 111.139L30.691 109.203Z" fill="black"/>
<path d="M42.7277 106.148L43.3896 108.739L32.2366 111.714L31.5391 108.988L42.7277 106.148Z" fill="black"/>
<path d="M47.7806 107.576L44.229 108.523L43.5742 105.939L46.834 105.113L47.7806 107.576Z" fill="black"/>
<path d="M36.657 110.534L41.0586 109.418L40.2538 106.244L35.8522 107.361L36.657 110.534Z" fill="white"/>
<path d="M46.8226 105.101L23.0361 111.137C21.876 107.998 20.6945 104.838 19.5415 101.756C18.6945 99.5 17.8617 97.2864 17.0503 95.1441C16.8439 94.5961 16.6375 94.0551 16.4311 93.5213C16.1891 92.8808 15.9471 92.2473 15.7123 91.6281C15.1856 90.2402 14.6802 88.9021 14.1891 87.621C13.7336 86.4252 13.2923 85.2793 12.8795 84.1975C12.666 83.6423 12.4596 83.1014 12.2603 82.5747C11.8404 81.4786 11.4489 80.4537 11.0859 79.5142L36.061 73.1797C44.303 87.5498 46.8226 105.101 46.8226 105.101Z" fill="#44475B"/>
<path d="M20.1662 78.9031C22.7356 80.1273 27.483 77.9565 27.483 77.9565C27.483 77.9565 29.0559 76.2199 28.1164 75.4512C26.2089 75.7003 26.3299 75.074 25.6395 74.0989C25.241 73.5295 24.9919 72.8249 24.8282 72.0775C24.7356 71.6861 24.6787 71.2804 24.6289 70.8747L17.1484 68.1914C18.8495 70.9387 21.4901 76.1416 20.1662 78.9031Z" fill="#EBB376"/>
<path opacity="0.2" d="M19.4219 70.6484C20.7671 74.2427 24.0909 74.3495 25.6283 74.1075C25.2297 73.5381 24.9806 72.8335 24.8169 72.0862L19.4219 70.6484Z" fill="black"/>
<path d="M29.1828 57.0352C29.1828 57.0352 31.1329 62.9426 28.3144 65.8252C25.4888 68.7078 23.5742 57.4124 23.5742 57.4124L29.1828 57.0352Z" fill="#263238"/>
<path d="M19.7912 72.2376C21.7343 74.2162 24.382 74.3728 26.4745 73.2981C27.8197 72.6077 28.9371 71.4048 29.4923 69.8532C29.5706 69.654 29.6275 69.4404 29.6845 69.2198C30.6382 65.2411 30.0403 58.6718 25.7058 56.9137C22.624 55.6326 19.0795 57.0917 17.8055 60.1806C17.4354 61.0561 17.2859 62.0098 17.3571 62.9565C17.6133 67.3693 17.5564 69.9814 19.7912 72.2376Z" fill="#EBB376"/>
<path d="M24.0651 64.1901C24.0366 64.546 24.2501 64.8378 24.4921 64.8378C24.7341 64.8378 24.9191 64.546 24.9191 64.183C24.9191 63.8271 24.727 63.5282 24.4921 63.5353C24.2572 63.5353 24.0651 63.8271 24.0651 64.1901Z" fill="#263238"/>
<path d="M28.1392 64.19C28.1107 64.5458 28.3314 64.8376 28.5662 64.8376C28.8011 64.8376 28.9933 64.5458 28.9933 64.1828C28.9933 63.8199 28.8011 63.5352 28.5662 63.5352C28.3314 63.5352 28.1392 63.8483 28.1392 64.19Z" fill="#263238"/>
<path d="M26.8424 64.375C27.2694 65.4782 27.8459 66.5102 28.5577 67.4569C28.0594 67.8127 27.426 67.9337 26.8281 67.7771L26.8424 64.375Z" fill="#D58745"/>
<path d="M29.6321 62.5297C29.561 62.5653 29.4756 62.5581 29.4115 62.5083C28.9845 62.1809 28.4293 62.0742 27.9097 62.2236C27.803 62.2663 27.682 62.2094 27.6393 62.1026C27.5966 61.9959 27.6535 61.8749 27.7603 61.8322C28.4079 61.6329 29.1197 61.7539 29.6535 62.1667C29.746 62.2307 29.7745 62.366 29.7104 62.4585C29.6891 62.487 29.6606 62.5083 29.6321 62.5226V62.5297Z" fill="#263238"/>
<path d="M23.2654 62.582C23.2227 62.582 23.18 62.5678 23.1444 62.5393C23.0661 62.4539 23.0732 62.3187 23.1586 62.2404C23.6639 61.7777 24.3615 61.5927 25.0234 61.7421C25.1373 61.7706 25.2013 61.8916 25.1657 61.9984C25.1301 62.1123 25.0163 62.1692 24.9024 62.1407C24.3757 62.0411 23.8276 62.1905 23.4291 62.5606C23.3721 62.5891 23.3081 62.5962 23.2511 62.5749L23.2654 62.582Z" fill="#263238"/>
<path d="M20.6066 57.4414L21.0337 58.2599C19.596 58.8079 19.9661 60.4877 20.2935 61.235C20.9981 62.8435 20.1867 65.4272 18.9767 66.5019C18.9767 66.5019 18.9056 65.7973 18.3148 65.9894C17.7241 66.1887 18.0657 69.8756 19.3113 71.5838C19.3113 71.5838 17.4679 70.0749 16.2935 66.2386C15.2045 62.6941 14.9483 59.7119 15.6173 58.2884L20.6066 57.4414Z" fill="#263238"/>
<path d="M15.4209 66.5805C15.912 67.5841 16.7803 68.3457 17.8337 68.7087C19.2287 69.1784 20.0045 67.9471 19.6842 66.5805C19.3853 65.3706 18.3106 63.6339 16.8728 63.7692C15.4351 63.9044 14.8373 65.3421 15.4209 66.5805Z" fill="#EBB376"/>
<path d="M20.5574 74.0142C22.6499 75.4804 26.7282 75.9573 28.7282 73.2953C30.7282 70.6334 30.0876 66.3843 30.0876 66.3843C29.7602 67.879 28.8065 68.9893 28.8065 68.9893C27.6819 67.6299 25.7531 68.3914 25.7531 68.3914C25.7531 68.3914 25.0485 67.459 24.1161 67.3665C23.1837 67.274 20.5787 67.4306 20.5787 67.4306C19.7318 66.9039 19.7033 64.5195 19.7033 64.5195L19.1908 64.9466C19.1908 64.9466 18.4577 72.5551 20.5503 74.0213L20.5574 74.0142Z" fill="#263238"/>
<path d="M26.1529 58.9491C26.1529 58.9491 31.1067 56.5292 30.5444 54.1164C29.9821 51.7035 28.5088 54.4509 28.5088 54.4509C28.5088 54.4509 29.1778 52.6146 27.8682 52.3584C26.5586 52.1021 26.9928 53.1982 26.2882 53.9028C25.5835 54.6075 18.6725 53.5826 16.4448 54.9633C14.217 56.3441 15.9181 61.1199 15.9181 61.1199C15.9181 61.1199 20.096 56.5932 26.1529 58.9562V58.9491Z" fill="#263238"/>
<path opacity="0.2" d="M20.5574 74.0142C22.6499 75.4804 26.7282 75.9573 28.7282 73.2953C30.7282 70.6334 30.0876 66.3843 30.0876 66.3843C29.7602 67.879 28.8065 68.9893 28.8065 68.9893C27.6819 67.6299 25.7531 68.3914 25.7531 68.3914C25.7531 68.3914 25.0485 67.459 24.1161 67.3665C23.1837 67.274 20.5787 67.4306 20.5787 67.4306C19.7318 66.9039 19.7033 64.5195 19.7033 64.5195L19.1908 64.9466C19.1908 64.9466 18.4577 72.5551 20.5503 74.0213L20.5574 74.0142Z" fill="white"/>
<path d="M25.9713 69.7552C25.5229 70.2961 24.9393 71.3709 24.9393 71.3709C24.8325 71.3353 24.7257 71.2997 24.619 71.257C23.1813 70.7374 22.683 70.0257 22.5692 69.3851C22.5051 69.0364 22.5692 68.709 22.6474 68.4527C22.74 68.1538 22.8681 67.9688 22.8681 67.9688C23.466 68.7018 24.7684 69.2855 25.4802 69.5702C25.7791 69.6912 25.9713 69.7552 25.9713 69.7552Z" fill="#263238"/>
<path d="M25.489 69.5709L25.1758 70.0406C23.8235 69.5495 22.9338 69.0228 22.6562 68.4606C22.7488 68.1616 22.8769 67.9766 22.8769 67.9766C23.4748 68.7097 24.7772 69.2933 25.489 69.578V69.5709Z" fill="white"/>
<path d="M24.6201 71.2547C23.1824 70.7351 22.6842 70.0234 22.5703 69.3828C23.0543 69.575 23.6166 69.8668 24.0579 70.2725C24.3924 70.5857 24.549 70.9273 24.6201 71.2547Z" fill="#DE5753"/>
<path d="M28.4145 77.9727L27.9945 81.6595L35.6814 98.0367L34.9198 100.208L32.4073 99.0474L26.9269 82.3499L22.8984 79.6168L25.8308 78.0082L28.4145 77.9727Z" fill="#00B386"/>
<path d="M20.3356 75.4507L25.4245 77.5503L25.631 74.1055L29.3818 75.0307L29.7021 80.2763L26.0865 78.803L24.5847 82.1624L18.1719 77.8777L20.3356 75.4507Z" fill="#263238"/>
<path opacity="0.2" d="M20.3356 75.4507L25.4245 77.5503L25.631 74.1055L29.3818 75.0307L29.7021 80.2763L26.0865 78.803L24.5847 82.1624L18.1719 77.8777L20.3356 75.4507Z" fill="white"/>
<path opacity="0.2" d="M15.7137 91.6284C15.187 90.2405 14.6817 88.9024 14.1905 87.6213C13.735 86.4255 13.2937 85.2796 12.8809 84.1978C12.6674 83.6426 12.461 83.1017 12.2617 82.575C13.009 82.2263 14.7884 82.4327 15.2937 83.3081C17.1443 86.5181 15.7137 91.6284 15.7137 91.6284Z" fill="black"/>
<path opacity="0.2" d="M24.633 95.2446C24.633 95.2446 24.0849 99.3157 19.544 101.757C18.697 99.5008 17.8643 97.2873 17.0529 95.1449C16.8465 94.5969 16.6401 94.056 16.4337 93.5221C16.1917 92.8816 15.9497 92.2481 15.7148 91.6289L23.9568 92.6752L24.633 95.2446Z" fill="black"/>
<path opacity="0.2" d="M44.5205 82.5266C40.8621 81.7437 37.0472 80.6476 37.0472 80.6476L36.5703 77.0391C36.5703 77.0391 43.2963 77.7579 44.5205 82.5266Z" fill="black"/>
<path d="M11.0882 166.605C10.7821 166.605 10.4761 166.47 10.2625 166.214C9.88531 165.758 9.95649 165.082 10.412 164.712C22.291 154.961 22.0633 139.673 21.8426 124.89C21.6789 113.744 21.5223 103.217 26.7608 96.0499C34.1202 85.993 63.7216 70.0286 68.6326 69.573C72.1344 69.2243 179.166 39.4805 235.266 23.8008C235.835 23.6442 236.419 23.9716 236.583 24.541C236.739 25.1104 236.412 25.7012 235.843 25.8577C229.202 27.7154 73.2305 71.2955 68.8319 71.7011C64.6113 72.0926 35.3088 87.993 28.4903 97.3168C23.6718 103.9 23.8213 114.085 23.985 124.861C24.1985 139.438 24.4476 155.957 11.7786 166.363C11.5793 166.527 11.3373 166.605 11.1024 166.605H11.0882Z" fill="#263238"/>
<g opacity="0.4">
<path d="M235.843 25.8577C234.725 26.1709 229.366 27.6656 221.209 29.9431C180.96 41.1745 72.4832 71.3666 68.8248 71.7011C64.6042 72.0926 35.3017 87.993 28.4832 97.3168C23.6647 103.9 23.8141 114.085 23.9778 124.861C24.1914 139.438 24.4405 155.964 11.7643 166.363C11.565 166.527 11.3302 166.605 11.0882 166.605C10.7821 166.605 10.4761 166.477 10.2625 166.221C9.88531 165.765 9.95649 165.089 10.412 164.712C22.291 154.961 22.0633 139.68 21.8426 124.897C21.6718 113.751 21.5152 103.217 26.7608 96.057C34.1202 85.993 63.7216 70.0286 68.6255 69.573C71.928 69.2456 166.747 42.9254 224.697 26.7545C228.384 25.7225 231.914 24.7403 235.266 23.8008C235.835 23.6442 236.419 23.9716 236.583 24.541C236.739 25.1104 236.405 25.7012 235.843 25.8577Z" fill="white"/>
</g>
<path opacity="0.2" d="M235.844 25.8617C234.727 26.1748 229.368 27.6695 221.211 29.9471C222.158 28.794 223.382 27.7193 224.698 26.7584C228.385 25.7264 231.916 24.7442 235.268 23.8047C235.837 23.6481 236.421 23.9755 236.585 24.5449C236.741 25.1143 236.407 25.7051 235.844 25.8617Z" fill="black"/>
<path d="M18.3633 93.1684L23.9647 92.6844C23.9647 92.6844 26.8829 90.8339 27.4522 90.9549C28.0216 91.0688 33.5875 93.7805 33.5875 93.7805C33.5875 93.7805 31.0537 97.0261 30.6409 97.7093C30.2209 98.3926 25.1889 95.1969 25.1889 95.1969L19.6444 95.7876L18.3704 93.1755L18.3633 93.1684Z" fill="#EBB376"/>
<path d="M11.089 79.5156C8.54807 81.3377 1.92173 96.1277 2.62636 98.4195C3.33098 100.704 23.9289 96.1989 23.9289 96.1989L23.0178 92.3412H11.936L14.5694 88.1918C14.5694 88.1918 16.1922 86.6117 15.1958 82.9391C14.4769 80.2914 11.089 79.5156 11.089 79.5156Z" fill="#44475B"/>
<path d="M225.696 81.0064L221.475 79.0135C221.475 79.0135 219.369 74.921 218.714 74.2733C218.059 73.6256 215.062 76.1594 215.062 76.5936C215.062 77.0277 217.255 81.1701 217.824 81.4121C218.393 81.6541 220.379 81.4121 220.379 81.4121L224.393 83.3551L225.689 81.0064H225.696Z" fill="#9F5B53"/>
<path d="M235.543 55.683L236.39 52.6581C236.39 52.6581 237.728 48.715 237.586 47.804C237.444 46.893 236.568 44.6367 236.568 44.6367C236.568 44.6367 232.867 49.1421 232.867 49.7043C232.867 50.2666 234.34 52.3093 234.34 52.3093L233.643 55.6901H235.543V55.683Z" fill="#9F5B53"/>
<path d="M238.797 78.2219C238.797 78.2219 235.608 74.2575 234.669 70.5706C233.729 66.8838 236.569 54.8909 236.569 54.8909L233.573 54.0938C233.573 54.0938 230.043 66.3429 229.893 70.8126C229.744 75.2824 236.42 88.3998 236.42 88.3998L238.797 78.229V78.2219Z" fill="#44475B"/>
<path opacity="0.2" d="M236.869 86.4475L236.414 88.3835C236.414 88.3835 234.122 83.871 232.25 79.2305C233.794 80.3266 235.446 82.0846 236.456 84.8604C236.641 85.3871 236.784 85.9137 236.869 86.4475Z" fill="black"/>
<path d="M255.679 86.8832C255.65 87.6092 255.543 88.4348 255.373 89.3458C255.045 91.1181 254.49 93.2177 253.857 95.5309C253.522 96.748 253.173 98.0504 252.817 99.4241C251.23 105.595 250.369 108.05 249.195 115.929L226.668 110.584C226.668 110.584 228.241 100.912 232.205 90.8334C232.867 89.1394 233.607 87.4312 234.405 85.7515C235.679 83.0967 237.138 80.5202 238.782 78.207C238.782 78.207 242.426 81.538 253.871 83.5309C255.259 83.7729 255.736 84.9757 255.664 86.8761L255.679 86.8832Z" fill="#44475B"/>
<path opacity="0.2" d="M252.845 84.3333C252.817 85.0593 255.543 88.4329 255.379 89.3439C255.073 89.5504 254.71 89.7781 254.297 90.0272C246.681 94.4685 236.674 92.2123 232.219 90.8386C232.881 89.1447 234.326 86.013 235.13 84.3333L240.475 85.5219C240.475 85.5219 249.229 83.5361 252.845 84.3333Z" fill="#44475B"/>
<path opacity="0.2" d="M243.687 79.578C244.505 79.2649 251.224 80.9375 250.726 81.0798C250.228 81.2222 247.723 88.909 244.221 88.3325C240.719 87.756 240.769 80.6884 243.687 79.578Z" fill="#44475B"/>
<path d="M213.268 205.523L209.04 206.441L206.57 196.712L210.805 195.801L213.268 205.523Z" fill="#9F5B53"/>
<path d="M207.986 204.676H213.246C213.424 204.676 213.574 204.797 213.616 204.975L214.47 208.832C214.542 209.174 214.321 209.516 213.979 209.587C213.937 209.594 213.887 209.601 213.837 209.601C212.136 209.573 210.897 209.466 208.762 209.466C207.445 209.466 203.474 209.601 201.659 209.601C199.844 209.601 199.602 207.807 200.349 207.644C203.687 206.918 206.2 205.907 207.268 204.953C207.467 204.768 207.723 204.676 207.994 204.676H207.986Z" fill="#263238"/>
<path d="M206.552 205.442C206.26 205.464 205.961 205.385 205.719 205.222C205.556 205.086 205.477 204.88 205.506 204.673C205.506 204.552 205.57 204.439 205.684 204.389C206.161 204.14 207.563 205.001 207.712 205.101C207.748 205.122 207.769 205.157 207.762 205.2C207.762 205.243 207.726 205.278 207.684 205.286C207.314 205.378 206.929 205.435 206.552 205.442ZM205.904 204.545C205.862 204.545 205.812 204.545 205.769 204.574C205.741 204.574 205.705 204.609 205.705 204.695C205.691 204.83 205.741 204.972 205.84 205.065C206.324 205.286 206.879 205.314 207.385 205.143C206.936 204.851 206.431 204.652 205.904 204.545Z" fill="#00B386"/>
<path d="M207.655 205.282H207.605C207.157 205.04 206.296 204.086 206.381 203.631C206.409 203.474 206.552 203.36 206.708 203.36C206.865 203.339 207.021 203.389 207.142 203.496C207.641 203.901 207.747 205.147 207.755 205.211C207.755 205.246 207.733 205.282 207.705 205.303C207.683 205.303 207.669 205.303 207.648 205.289L207.655 205.282ZM206.787 203.524H206.737C206.602 203.524 206.594 203.602 206.587 203.631C206.53 203.908 207.086 204.634 207.527 204.969C207.498 204.478 207.32 204.001 207.014 203.617C206.95 203.56 206.865 203.531 206.787 203.531V203.524Z" fill="#00B386"/>
<path d="M249.387 116.55C249.387 116.55 245.743 133.959 237.195 138.635C236.213 139.176 235.152 139.546 234.035 139.703C234.035 139.703 225.373 143.24 217.885 146.628C213.33 148.685 209.209 150.699 207.736 151.817C203.835 154.792 213.394 201.119 213.394 201.119L206.896 201.198C206.896 201.198 193.237 160.166 195.544 149.404C197.85 138.635 222.326 122.151 222.326 122.151L226.106 111.781L249.394 116.557L249.387 116.55Z" fill="#00B386"/>
<path opacity="0.2" d="M237.192 138.635C236.21 139.176 235.15 139.546 234.032 139.702C234.032 139.702 225.37 143.24 217.883 146.628C222.701 137.774 231.292 132.016 231.292 132.016L237.192 138.635Z" fill="black"/>
<path d="M267.69 205.523L263.462 206.441L260.992 196.712L265.227 195.801L267.69 205.523Z" fill="#9F5B53"/>
<path d="M262.408 204.676H267.668C267.846 204.676 267.995 204.797 268.038 204.975L268.892 208.832C268.963 209.174 268.743 209.516 268.401 209.587C268.358 209.594 268.309 209.601 268.259 209.601C266.558 209.573 265.319 209.466 263.184 209.466C261.867 209.466 257.896 209.601 256.081 209.601C254.266 209.601 254.024 207.807 254.771 207.644C258.109 206.918 260.622 205.907 261.689 204.953C261.889 204.768 262.145 204.676 262.415 204.676H262.408Z" fill="#263238"/>
<path d="M260.974 205.442C260.682 205.464 260.383 205.385 260.141 205.222C259.977 205.086 259.899 204.88 259.928 204.673C259.928 204.552 259.992 204.439 260.106 204.389C260.582 204.14 261.985 205.001 262.134 205.101C262.17 205.122 262.191 205.157 262.184 205.2C262.184 205.243 262.148 205.278 262.106 205.286C261.735 205.378 261.351 205.435 260.974 205.442ZM260.326 204.545C260.283 204.545 260.234 204.545 260.191 204.574C260.162 204.574 260.127 204.609 260.127 204.695C260.113 204.83 260.162 204.972 260.262 205.065C260.746 205.286 261.301 205.314 261.807 205.143C261.358 204.851 260.853 204.652 260.326 204.545Z" fill="#00B386"/>
<path d="M262.081 205.282H262.031C261.582 205.04 260.721 204.086 260.807 203.631C260.835 203.474 260.978 203.36 261.134 203.36C261.291 203.339 261.447 203.389 261.568 203.496C262.066 203.901 262.173 205.147 262.18 205.211C262.18 205.246 262.159 205.282 262.131 205.303C262.109 205.303 262.095 205.303 262.074 205.289L262.081 205.282ZM261.212 203.524H261.163C261.027 203.524 261.02 203.602 261.013 203.631C260.956 203.908 261.511 204.634 261.953 204.969C261.924 204.478 261.746 204.001 261.44 203.617C261.376 203.56 261.291 203.531 261.212 203.531V203.524Z" fill="#00B386"/>
<path d="M250.846 83.2646C249.786 83.9479 244.903 83.7059 244.903 83.7059L242.597 86.1827L242.383 82.076C242.383 82.076 240.853 81.4354 241.266 80.9941C242.654 80.9941 243.586 80.6169 244.213 80.0048C245.202 79.0368 245.401 77.4852 245.387 75.9336C245.387 75.9194 245.387 75.898 245.387 75.8767L249.565 73.7343L252.447 72.2539C251.117 75.2005 249.173 80.6952 250.839 83.2646H250.846Z" fill="#9F5B53"/>
<path opacity="0.2" d="M250.965 74.734C249.585 78.2216 245.969 79.7803 244.211 80.008C245.2 79.0401 245.4 77.4885 245.385 75.9369C245.385 75.9155 245.392 75.8942 245.385 75.8728L249.563 73.7305C249.563 74.307 251.172 74.1931 250.965 74.7269V74.734Z" fill="black"/>
<path d="M253.627 74.5934C253.627 74.5934 256.346 76.0454 257.25 74.3158C258.154 72.5863 256.865 72.5151 258.189 71.903C259.513 71.2909 261.413 70.8639 260.979 69.5685C260.545 68.2803 259.207 68.1237 260.694 66.75C262.189 65.3763 262.517 63.3123 260.282 62.9279C258.047 62.5436 258.901 60.8212 258.787 60.0596C258.673 59.2981 257.42 58.8496 256.061 59.1343C254.702 59.419 254.132 57.4048 253.299 56.7785C252.46 56.1521 251.299 56.9279 250.993 57.7749C250.687 58.6219 249.883 57.4902 248.68 57.355C247.477 57.2198 247.769 58.4724 247.392 59.6468C247.015 60.8212 246.289 60.0596 245.435 61.0276C244.581 61.9956 244.502 68.6005 253.627 74.6005V74.5934Z" fill="#263238"/>
<path d="M254.808 70.5397C252.772 73.7425 251.612 75.8564 249.32 76.8955C249.028 77.0308 248.708 77.1517 248.366 77.2514C243.911 78.561 240.238 74.2692 241.413 70.0272C241.612 69.3155 241.897 68.561 242.267 67.7923C243.854 64.4542 246.929 61.0308 250.594 61.4863C253.811 61.8564 256.117 64.7603 255.747 67.9845C255.64 68.9026 255.32 69.7781 254.815 70.5539L254.808 70.5397Z" fill="#9F5B53"/>
<path d="M248.538 68.4166C248.389 68.7298 248.076 68.8793 247.869 68.7654C247.67 68.6515 247.649 68.317 247.812 68.0109C247.976 67.7049 248.282 67.5483 248.481 67.6622C248.681 67.7761 248.702 68.1106 248.538 68.4166Z" fill="#263238"/>
<path d="M245.085 66.5026C244.936 66.8157 244.615 66.9652 244.416 66.8513C244.217 66.7374 244.196 66.4029 244.359 66.0969C244.523 65.7908 244.829 65.6342 245.028 65.7481C245.228 65.862 245.242 66.2107 245.085 66.5026Z" fill="#263238"/>
<path d="M246.106 67.2617C245.224 67.9948 244.242 68.5998 243.195 69.0624C243.452 69.6034 243.928 70.0019 244.512 70.1514L246.106 67.2617Z" fill="#892B29"/>
<path d="M250.603 67.6052C250.524 67.6123 250.453 67.5838 250.403 67.5198C250.105 67.0927 249.628 66.8294 249.108 66.808C248.994 66.808 248.902 66.7297 248.895 66.6159C248.895 66.502 248.973 66.4095 249.087 66.4023C249.749 66.4023 250.361 66.7369 250.738 67.2778C250.809 67.3632 250.788 67.4913 250.702 67.5625C250.674 67.5767 250.645 67.591 250.61 67.5981L250.603 67.6052Z" fill="#263238"/>
<path d="M245.336 72.0572C246.311 72.3775 247.379 72.1995 248.197 71.5803C248.24 71.5376 248.247 71.4736 248.212 71.4237C248.176 71.381 248.112 71.3739 248.062 71.4095C247.293 71.9647 246.304 72.1213 245.4 71.8366C245.343 71.8152 245.286 71.8437 245.265 71.9006C245.265 71.9006 245.265 71.9077 245.265 71.9148C245.244 71.9718 245.272 72.0287 245.329 72.0501C245.329 72.0501 245.336 72.0501 245.343 72.0501L245.336 72.0572Z" fill="#263238"/>
<path d="M244.78 63.5488C244.766 63.5132 244.759 63.4705 244.773 63.4278C244.823 63.3281 244.944 63.2783 245.044 63.3281C245.649 63.5986 246.083 64.1466 246.204 64.7943C246.218 64.9082 246.14 65.0079 246.026 65.0221C245.912 65.0363 245.813 64.958 245.798 64.8442C245.684 64.3317 245.336 63.9118 244.859 63.6982C244.809 63.6627 244.781 63.6057 244.773 63.5417L244.78 63.5488Z" fill="#263238"/>
<path d="M247.699 61.7699C248.738 61.898 249.251 63.1649 249.251 63.1649C249.251 63.1649 251.792 64.1115 252.881 64.866C253.97 65.6204 253.763 66.9656 253.721 67.3073C253.678 67.6489 252.845 67.9621 252.845 67.9621C252.845 67.9621 251.301 71.592 250.888 72.5955L251.101 75.9407C251.101 75.9407 255.201 73.6489 257.628 68.5955C260.055 63.5422 249.927 59.0938 249.927 59.0938L247.699 61.777V61.7699Z" fill="#263238"/>
<path d="M254.195 75.6044C253.248 76.124 252.131 76.245 251.092 75.9389C249.718 75.5261 249.796 74.1168 250.814 73.22C251.725 72.43 253.554 71.6542 254.615 72.5724C255.675 73.4834 255.348 74.9567 254.188 75.6115L254.195 75.6044Z" fill="#9F5B53"/>
<path d="M250.726 81.0799L245.068 82.7098L242.627 86.0123L243.296 81.9696C243.296 81.9696 242.684 81.0372 243.687 79.5781L240.242 80.2899L238.164 83.7703L242.207 82.8166L242.491 86.8521L244.84 84.0763L246.769 87.1226L252.499 83.4856L250.719 81.087L250.726 81.0799Z" fill="#407BFF"/>
<path d="M250.726 81.0799L245.068 82.7098L242.627 86.0123L243.296 81.9696C243.296 81.9696 242.684 81.0372 243.687 79.5781L240.242 80.2899L238.164 83.7703L242.207 82.8166L242.491 86.8521L244.84 84.0763L246.769 87.1226L252.499 83.4856L250.719 81.087L250.726 81.0799Z" fill="#44475B"/>
<path d="M226.98 108.258L226.098 111.774L249.386 116.55L249.735 112.642L226.98 108.258Z" fill="black"/>
<path d="M237.379 110.102C237.194 109.838 232.013 108.728 231.522 109.098C231.522 109.098 230.511 112.564 230.689 112.927C230.86 113.29 235.906 113.995 236.369 114.095C236.838 114.187 237.564 110.365 237.379 110.109V110.102ZM235.956 113.632C235.572 113.554 231.429 112.97 231.287 112.671C231.144 112.372 231.977 109.525 231.977 109.525C232.376 109.219 236.639 110.137 236.789 110.351C236.938 110.564 236.347 113.71 235.963 113.632H235.956Z" fill="white"/>
<path d="M236.157 111.285L235.132 111.071C234.939 111.028 234.74 111.149 234.69 111.334V111.349C234.619 111.569 234.762 111.79 234.982 111.833L236.014 112.025C236.228 112.068 236.434 111.918 236.463 111.697C236.491 111.498 236.356 111.313 236.157 111.27V111.285Z" fill="white"/>
<path d="M249.379 116.547C249.379 116.547 249.827 142.896 249.087 150.568C248.347 158.241 267.514 200.326 267.514 200.326H261.301C261.301 200.326 242.475 169.522 238.162 160.042C233.849 150.561 230.66 127.949 230.66 127.949L249.379 116.554V116.547Z" fill="#00B386"/>
<path d="M255.756 85.0519C254.795 82.8739 240.04 86.0981 238.709 85.7209C237.378 85.3437 223.528 79.543 223.528 79.543L222.332 82.6533C222.332 82.6533 234.752 89.7778 237.464 90.8953C240.175 92.0127 251.051 91.4789 253.805 90.2761C256.56 89.0803 256.325 86.333 255.763 85.059L255.756 85.0519Z" fill="#44475B"/>
<path d="M253.151 28.4911L248.681 0L225.137 16.6548L232.988 19.9715C225.429 37.2954 200.909 88.0498 158.717 125.473C104.817 173.281 29.4217 196.804 28.6602 197.032L32.831 210.641C36.0338 209.658 111.891 186.036 168.155 136.121C212.995 96.3487 238.205 43.8861 246.119 25.5231L253.144 28.4911H253.151Z" fill="#00B386"/>
<path opacity="0.4" d="M248.881 23.5089L248.681 0L225.137 16.6548L232.988 19.9715C225.429 37.2954 200.909 88.0498 158.717 125.473C104.817 173.281 29.4217 196.804 28.6602 197.032L29.984 205.658C33.1868 204.676 109.044 183.189 165.308 133.274C210.148 93.5018 233.934 40.3274 241.849 21.9644L248.874 23.5089H248.881Z" fill="white"/>
<path d="M244.76 29.6926C244.653 29.6926 244.539 29.6784 244.432 29.6428L230.753 25.2229C230.19 25.0449 229.884 24.44 230.062 23.8777C230.24 23.3154 230.845 23.0094 231.407 23.1873L245.087 27.6072C245.649 27.7852 245.956 28.3901 245.778 28.9524C245.628 29.4079 245.215 29.6926 244.76 29.6926Z" fill="#263238"/>
<g opacity="0.4">
<path d="M244.764 29.6965C244.657 29.6965 244.543 29.6823 244.436 29.6467L230.757 25.2268C230.194 25.0489 229.888 24.4439 230.066 23.8816C230.244 23.3193 230.849 23.0133 231.411 23.1912L245.091 27.6111C245.653 27.7891 245.959 28.3941 245.781 28.9563C245.632 29.4118 245.219 29.6965 244.764 29.6965Z" fill="white"/>
</g>
<path d="M81.0129 162.931C80.4222 162.931 79.9453 162.454 79.9453 161.864C79.9453 127.885 89.8172 123.415 91.6677 122.881L123.084 100.924C123.084 100.924 123.127 100.896 123.148 100.881L243.703 29.3797C244.209 29.0808 244.863 29.2445 245.17 29.7498C245.468 30.2551 245.305 30.9099 244.799 31.216L124.28 102.696L92.7353 124.739C92.6001 124.832 92.4507 124.896 92.2941 124.917C92.2158 124.931 82.0877 127.415 82.0877 161.864C82.0877 162.454 81.6108 162.931 81.0201 162.931H81.0129Z" fill="#263238"/>
<g opacity="0.4">
<path d="M81.0129 162.931C80.4222 162.931 79.9453 162.454 79.9453 161.864C79.9453 127.885 89.8172 123.415 91.6677 122.881L123.084 100.924C123.084 100.924 123.127 100.896 123.148 100.881L243.703 29.3797C244.209 29.0808 244.863 29.2445 245.17 29.7498C245.468 30.2551 245.305 30.9099 244.799 31.216L124.28 102.696L92.7353 124.739C92.6001 124.832 92.4507 124.896 92.2941 124.917C92.2158 124.931 82.0877 127.415 82.0877 161.864C82.0877 162.454 81.6108 162.931 81.0201 162.931H81.0129Z" fill="white"/>
</g>
<path d="M89.2082 127.674C89.2082 127.674 83.7207 131.212 79.5498 132.308C78.3043 132.642 77.1797 132.749 76.3541 132.486C73.2509 131.503 75.0943 125.496 76.9449 121.703C77.2438 121.084 77.5427 120.528 77.8203 120.059L83.2438 123.411C83.2438 123.411 79.9555 128.101 80.3328 128.379C80.71 128.664 85.7776 125.845 86.0552 125.753C86.3399 125.66 89.2082 127.674 89.2082 127.674Z" fill="#00B386"/>
<path opacity="0.2" d="M89.2087 127.674C89.2087 127.674 83.7211 131.212 79.5503 132.308C78.2763 128.692 77.4364 124.635 76.9453 121.703C77.2442 121.084 77.5432 120.528 77.8208 120.059L83.2442 123.411C83.2442 123.411 79.956 128.101 80.3332 128.379C80.7104 128.664 85.7781 125.845 86.0556 125.753C86.3403 125.66 89.2087 127.674 89.2087 127.674Z" fill="black"/>
<path d="M115.953 107.02L119.17 104.152C119.17 104.152 119.861 102.145 120.202 101.853C120.544 101.568 126.402 101.105 126.402 101.105C126.402 101.105 126.515 104.209 126.06 105.013C125.597 105.817 120.814 106.159 120.814 106.159L118.252 108.629L115.953 107.02Z" fill="#EEC1BB"/>
<path d="M133.075 174.484C132.157 187.694 129.701 206.442 129.701 206.442L126.541 207.139C126.541 207.139 123.623 191.445 124.085 176.883C124.192 173.602 124.47 170.378 124.982 167.41C124.982 167.41 114.036 163.203 106.434 159.438C102.804 157.644 99.936 155.943 99.388 154.847C97.694 151.466 105.395 143.523 105.395 143.523C105.637 143.716 110.285 146.676 115.694 150.185C122.876 154.84 131.395 160.463 132.79 161.865C133.601 162.684 133.53 167.894 133.075 174.484Z" fill="#EEC1BB"/>
<path opacity="0.2" d="M133.074 174.486C129.743 175.704 126.619 176.437 124.085 176.885C124.192 173.604 124.469 170.38 124.982 167.412C124.982 167.412 114.035 163.205 106.434 159.44L115.693 150.188C122.875 154.842 131.394 160.465 132.789 161.867C133.601 162.686 133.53 167.896 133.074 174.486Z" fill="black"/>
<path d="M108.434 141.332C108.434 141.332 138.804 158.791 142.932 162.734C147.06 166.677 170.889 203.531 170.889 203.531L168.882 205.446C168.882 205.446 149.088 188.457 141.202 172.307L108.434 156.492V141.339V141.332Z" fill="#EEC1BB"/>
<path d="M85.3565 109.099C85.4063 109.127 85.4561 109.163 85.5131 109.184C86.2319 109.562 87.0504 109.903 87.933 109.974C90.4099 110.195 92.0042 109.633 92.9152 108.401C94.1821 106.565 94.1536 103.626 93.4561 100.181C93.1429 98.6007 92.7159 97.2413 92.1252 96.2235C92.1252 96.2164 92.1109 96.1737 92.1038 96.1666C92.0753 96.1239 92.054 96.0669 92.0255 96.0242C91.1572 94.6079 89.933 93.7822 88.1323 93.6114C87.5131 93.5545 86.8155 93.5687 86.0469 93.6684C79.2568 94.5438 79.6056 105.946 85.3422 109.099H85.3565Z" fill="#EEC1BB"/>
<path opacity="0.2" d="M85.5156 109.183C86.2345 109.56 87.0388 109.802 87.9284 109.88C90.4053 110.101 91.9854 109.46 92.9035 108.215C91.7647 108.642 90.1918 108.962 88.5548 108.464C87.5227 108.158 86.4765 108.535 85.5227 109.183H85.5156Z" fill="black"/>
<path d="M85.0596 114.751C84.4688 116.659 86.9101 117.67 86.9101 117.67C91.1806 116.275 92.1343 114.154 92.1343 114.154C88.8603 112.061 90.3051 107.086 90.3051 107.086L89.5792 107.371L84.5898 107.897C84.5898 107.897 85.7215 110.63 85.8425 111.235V111.25C86.4902 114.438 85.0454 114.751 85.0454 114.751H85.0596Z" fill="#EBB376"/>
<path d="M92.142 96.1798C92.142 96.1798 93.1811 100.884 88.9605 103.554C88.9605 103.554 87.7149 108.763 84.8751 109.233C81.0032 109.874 76.811 104.82 77.3662 99.0055C78.0921 91.461 89.0672 89.3257 92.142 96.1798Z" fill="#263238"/>
<path d="M91.052 101.874C90.9452 101.134 90.1765 99.9666 89.0448 100.301C87.8776 100.643 87.6285 103.675 90.6534 103.924C91.0875 103.959 91.2726 103.419 91.052 101.874Z" fill="#EBB376"/>
<path d="M169.568 201.259L166.294 203.786C166.152 203.893 166.109 204.085 166.187 204.242L167.853 207.8C168.002 208.113 168.386 208.249 168.7 208.099C168.742 208.078 168.785 208.057 168.821 208.028C170.144 206.975 170.187 206.804 171.874 205.509C172.913 204.711 176.123 202.405 177.554 201.302C178.984 200.199 178.08 198.64 177.397 198.96C174.33 200.412 171.739 201.146 170.315 201.039C170.052 201.017 169.781 201.096 169.575 201.267L169.568 201.259Z" fill="#263238"/>
<path d="M170.275 201.195C170.24 201.21 170.19 201.202 170.161 201.174C170.133 201.145 170.126 201.103 170.14 201.067C170.204 200.896 170.78 199.366 171.307 199.274C171.428 199.245 171.549 199.295 171.62 199.395C171.77 199.544 171.834 199.758 171.784 199.957C171.692 200.234 171.506 200.476 171.264 200.633C170.958 200.854 170.624 201.046 170.275 201.195ZM170.425 200.903C170.923 200.733 171.343 200.377 171.592 199.907C171.62 199.772 171.571 199.629 171.478 199.53C171.421 199.466 171.371 199.459 171.35 199.473C171.307 199.48 171.264 199.501 171.229 199.53C170.873 199.928 170.603 200.391 170.425 200.896V200.903Z" fill="#00B386"/>
<path d="M170.271 201.233C170.235 201.233 170.2 201.219 170.178 201.19C170.143 201.141 169.474 200.094 169.623 199.468C169.652 199.311 169.751 199.176 169.887 199.098C170.015 198.998 170.193 199.005 170.314 199.112C170.662 199.418 170.556 200.692 170.356 201.155L170.321 201.183C170.321 201.183 170.307 201.219 170.285 201.233H170.271ZM169.794 199.482C169.794 199.973 169.936 200.457 170.214 200.863C170.364 200.329 170.356 199.425 170.143 199.24C170.122 199.219 170.065 199.169 169.965 199.247L169.922 199.276C169.858 199.326 169.808 199.404 169.794 199.482Z" fill="#00B386"/>
<path d="M130.257 204.312L126.122 204.398C125.944 204.398 125.795 204.526 125.759 204.704L124.983 208.555C124.919 208.896 125.147 209.231 125.489 209.295C125.531 209.302 125.581 209.309 125.631 209.309C127.325 209.245 127.46 209.138 129.581 209.095C130.891 209.067 134.841 209.124 136.649 209.095C138.457 209.06 138.656 207.266 137.916 207.117C134.585 206.462 132.065 205.508 130.983 204.576C130.784 204.398 130.521 204.305 130.257 204.32V204.312Z" fill="#263238"/>
<path d="M130.627 204.8C130.584 204.793 130.555 204.757 130.548 204.715C130.541 204.672 130.562 204.636 130.598 204.615C130.748 204.515 132.121 203.633 132.605 203.868C132.719 203.918 132.79 204.024 132.783 204.152C132.819 204.359 132.74 204.565 132.584 204.708C132.342 204.878 132.057 204.964 131.758 204.942C131.374 204.942 130.997 204.893 130.627 204.807V204.8ZM130.918 204.651C131.424 204.807 131.972 204.772 132.449 204.544C132.548 204.451 132.598 204.309 132.577 204.174C132.57 204.088 132.534 204.053 132.506 204.053C132.463 204.031 132.42 204.024 132.37 204.031C131.851 204.145 131.353 204.352 130.911 204.651H130.918Z" fill="#00B386"/>
<path d="M130.601 204.82C130.601 204.82 130.551 204.763 130.551 204.727C130.551 204.67 130.636 203.425 131.127 203.012C131.241 202.905 131.398 202.855 131.554 202.87C131.711 202.87 131.853 202.976 131.889 203.133C131.989 203.588 131.142 204.549 130.707 204.798H130.658C130.658 204.798 130.622 204.82 130.601 204.82ZM131.255 203.133C130.964 203.524 130.793 204.001 130.771 204.492C131.206 204.151 131.739 203.418 131.682 203.14C131.682 203.112 131.661 203.033 131.533 203.04H131.483C131.398 203.04 131.319 203.076 131.255 203.133Z" fill="#00B386"/>
<path d="M107.585 136.652L92.5178 142.979C86.2901 127.499 77.8203 120.054 77.8203 120.054C83.8559 112.815 95.0018 109.484 95.0018 109.484C96.5534 110.68 97.9484 112.324 99.2082 114.21C100.44 116.075 101.529 118.175 102.482 120.324C105.956 128.161 107.585 136.652 107.585 136.652Z" fill="#00B386"/>
<path d="M91.9994 99.3038C91.9994 99.3038 96.7325 94.4782 92.1987 91.3038C87.6578 88.1294 83.1667 92.3714 83.1667 92.3714C83.1667 92.3714 72.398 95.0832 74.761 102.229C77.124 109.382 78.6329 109.98 75.2521 113.688C71.8713 117.403 68.4265 122.884 71.9567 126.336C75.4799 129.788 87.6578 126.087 91.3162 120.791C94.9745 115.496 88.3126 104.272 92.0066 99.3038H91.9994Z" fill="#263238"/>
<path d="M106.489 132.015L90.1328 137.631C90.1328 137.631 93.7485 155.46 96.3748 158.435C99.0011 161.417 116.56 175.225 119.044 174.136C121.528 173.047 137.99 158.435 137.99 158.435L110.111 139.317L106.482 132.008L106.489 132.015Z" fill="#44475B"/>
<path d="M104.114 135.363L107.594 134.21L106.733 132.48L103.438 133.648L104.114 135.363Z" fill="black"/>
<path d="M93.7065 137.07L90.1406 138.323L90.6175 139.846L94.105 138.686L93.7065 137.07Z" fill="black"/>
<path d="M94.8565 138.437L103.419 135.597L102.778 133.875L94.3867 136.829L94.8565 138.437Z" fill="black"/>
<path opacity="0.2" d="M102.481 120.325C98.88 119.905 96.8516 114.489 96.8516 114.489C97.6843 114.339 98.4672 114.254 99.2074 114.211C100.439 116.076 101.528 118.175 102.481 120.325Z" fill="black"/>
<path d="M95.004 109.489C98.9186 108.905 107.673 112.079 108.435 112.044C109.196 112.008 117.716 105.332 117.716 105.332L119.922 107.275C119.922 107.275 111.025 116.457 109.196 116.549C107.367 116.649 97.794 115.937 97.794 115.937C97.794 115.937 95.4595 115.104 95.004 112.99C94.5556 110.877 95.004 109.489 95.004 109.489Z" fill="#00B386"/>
</svg>
