<svg width="240" height="240" viewBox="0 0 240 240" fill="none" xmlns="http://www.w3.org/2000/svg">
<path d="M159.606 30.6388C149.132 36.6292 141.75 46.7044 132.793 54.7924C121.734 64.7764 108.034 71.8036 93.4712 74.9572C81.4904 77.554 68.9384 77.5876 57.3704 81.6484C34.8296 89.5636 19.3592 113.055 18.9464 136.944C18.5384 160.829 32.1464 183.97 52.1192 197.079C58.9016 201.528 66.3704 204.936 74.18 207.13C88.8728 211.263 104.444 211.08 119.626 209.501C145.844 206.77 173.329 191.885 189.855 170.89C197.228 161.525 203.449 151.268 208.402 140.434C216.543 122.645 221.281 103.277 222.092 83.722C222.788 66.9172 222.078 48.298 208.762 36.058C195.476 23.842 175.234 21.6964 159.606 30.634V30.6388Z" fill="#92E3A9"/>
<path opacity="0.7" d="M159.606 30.6388C149.132 36.6292 141.75 46.7044 132.793 54.7924C121.734 64.7764 108.034 71.8036 93.4712 74.9572C81.4904 77.554 68.9384 77.5876 57.3704 81.6484C34.8296 89.5636 19.3592 113.055 18.9464 136.944C18.5384 160.829 32.1464 183.97 52.1192 197.079C58.9016 201.528 66.3704 204.936 74.18 207.13C88.8728 211.263 104.444 211.08 119.626 209.501C145.844 206.77 173.329 191.885 189.855 170.89C197.228 161.525 203.449 151.268 208.402 140.434C216.543 122.645 221.281 103.277 222.092 83.722C222.788 66.9172 222.078 48.298 208.762 36.058C195.476 23.842 175.234 21.6964 159.606 30.634V30.6388Z" fill="white"/>
<path d="M132.047 222.985C179.587 222.985 218.126 212.605 218.126 199.801C218.126 186.997 179.587 176.617 132.047 176.617C84.5074 176.617 45.9688 186.997 45.9688 199.801C45.9688 212.605 84.5074 222.985 132.047 222.985Z" fill="#92E3A9"/>
<path opacity="0.5" d="M132.047 222.985C179.587 222.985 218.126 212.605 218.126 199.801C218.126 186.997 179.587 176.617 132.047 176.617C84.5074 176.617 45.9688 186.997 45.9688 199.801C45.9688 212.605 84.5074 222.985 132.047 222.985Z" fill="white"/>
<path d="M41.3429 32.7852H142.541C144.912 32.7852 146.837 34.71 146.837 37.0812V93.8075C146.837 96.1787 144.912 98.1036 142.541 98.1036H41.3429C38.9717 98.1036 37.0469 96.1787 37.0469 93.8075V37.0812C37.0469 34.71 38.9717 32.7852 41.3429 32.7852Z" fill="white"/>
<path d="M146.837 37.0812V38.7804H37.0469V37.0812C37.0469 34.71 38.9717 32.7852 41.3429 32.7852H142.541C144.912 32.7852 146.837 34.71 146.837 37.0812Z" fill="#92E3A9"/>
<path d="M41.3429 32.7852H142.541C144.912 32.7852 146.837 34.71 146.837 37.0812V93.8075C146.837 96.1787 144.912 98.1036 142.541 98.1036H41.3429C38.9717 98.1036 37.0469 96.1787 37.0469 93.8075V37.0812C37.0469 34.71 38.9717 32.7852 41.3429 32.7852Z" stroke="#263238" stroke-linecap="round" stroke-linejoin="round"/>
<path d="M146.837 37.0812V38.7804H37.0469V37.0812C37.0469 34.71 38.9717 32.7852 41.3429 32.7852H142.541C144.912 32.7852 146.837 34.71 146.837 37.0812Z" stroke="#263238" stroke-linecap="round" stroke-linejoin="round"/>
<path d="M49.3781 35.7789C49.3781 36.3837 48.8885 36.8781 48.2789 36.8781C47.6693 36.8781 47.1797 36.3885 47.1797 35.7789C47.1797 35.1693 47.6693 34.6797 48.2789 34.6797C48.8885 34.6797 49.3781 35.1693 49.3781 35.7789Z" fill="#263238"/>
<path d="M55.1125 35.7789C55.1125 36.3837 54.6229 36.8781 54.0133 36.8781C53.4037 36.8781 52.9141 36.3885 52.9141 35.7789C52.9141 35.1693 53.4037 34.6797 54.0133 34.6797C54.6229 34.6797 55.1125 35.1693 55.1125 35.7789Z" fill="#263238"/>
<path d="M59.7515 36.8781C60.3586 36.8781 60.8507 36.386 60.8507 35.7789C60.8507 35.1718 60.3586 34.6797 59.7515 34.6797C59.1445 34.6797 58.6523 35.1718 58.6523 35.7789C58.6523 36.386 59.1445 36.8781 59.7515 36.8781Z" fill="#263238"/>
<path d="M76.3675 43.5391H45.3259C44.3477 43.5391 43.5547 44.3321 43.5547 45.3103V60.2431C43.5547 61.2213 44.3477 62.0143 45.3259 62.0143H76.3675C77.3457 62.0143 78.1387 61.2213 78.1387 60.2431V45.3103C78.1387 44.3321 77.3457 43.5391 76.3675 43.5391Z" stroke="#263238" stroke-linecap="round" stroke-linejoin="round"/>
<path d="M45.5898 59.6914H75.5754" stroke="#263238" stroke-linecap="round" stroke-linejoin="round"/>
<path d="M51.2964 56.1641H47.8164V59.6441H51.2964V56.1641Z" fill="#92E3A9" stroke="#263238" stroke-miterlimit="10"/>
<path d="M56.3902 51.5898H52.9102V59.6922H56.3902V51.5898Z" fill="#92E3A9" stroke="#263238" stroke-miterlimit="10"/>
<path d="M62.1245 52.9805H58.6445V59.7725H62.1245V52.9805Z" fill="#92E3A9" stroke="#263238" stroke-miterlimit="10"/>
<path d="M68.1558 46.2188H64.6758V59.5388H68.1558V46.2188Z" fill="#92E3A9" stroke="#263238" stroke-miterlimit="10"/>
<path d="M74.1792 46.3242H70.6992V59.6442H74.1792V46.3242Z" fill="#92E3A9" stroke="#263238" stroke-miterlimit="10"/>
<path d="M42.75 71.4492H45.5916" stroke="#263238" stroke-linecap="round" stroke-linejoin="round"/>
<path d="M42.75 76.9414H45.5916" stroke="#263238" stroke-linecap="round" stroke-linejoin="round"/>
<path d="M42.75 82.4375H45.5916" stroke="#263238" stroke-linecap="round" stroke-linejoin="round"/>
<path d="M42.75 87.9258H45.5916" stroke="#263238" stroke-linecap="round" stroke-linejoin="round"/>
<path d="M51.8555 92.0752V89.8672" stroke="#263238" stroke-linecap="round" stroke-linejoin="round"/>
<path d="M56.3594 92.0752V89.8672" stroke="#263238" stroke-linecap="round" stroke-linejoin="round"/>
<path d="M60.8594 92.0752V89.8672" stroke="#263238" stroke-linecap="round" stroke-linejoin="round"/>
<path d="M65.3672 92.0752V89.8672" stroke="#263238" stroke-linecap="round" stroke-linejoin="round"/>
<path d="M69.8711 92.0752V89.8672" stroke="#263238" stroke-linecap="round" stroke-linejoin="round"/>
<path d="M74.3711 92.0752V89.8672" stroke="#263238" stroke-linecap="round" stroke-linejoin="round"/>
<path d="M78.875 92.0752V89.8672" stroke="#263238" stroke-linecap="round" stroke-linejoin="round"/>
<path d="M83.3828 92.0752V89.8672" stroke="#263238" stroke-linecap="round" stroke-linejoin="round"/>
<path d="M87.8828 92.0752V89.8672" stroke="#263238" stroke-linecap="round" stroke-linejoin="round"/>
<path d="M92.3867 92.0752V89.8672" stroke="#263238" stroke-linecap="round" stroke-linejoin="round"/>
<path d="M96.8906 92.0752V89.8672" stroke="#263238" stroke-linecap="round" stroke-linejoin="round"/>
<path d="M101.395 92.0752V89.8672" stroke="#263238" stroke-linecap="round" stroke-linejoin="round"/>
<path d="M105.898 92.0752V89.8672" stroke="#263238" stroke-linecap="round" stroke-linejoin="round"/>
<path d="M110.402 92.0752V89.8672" stroke="#263238" stroke-linecap="round" stroke-linejoin="round"/>
<path d="M114.902 92.0752V89.8672" stroke="#263238" stroke-linecap="round" stroke-linejoin="round"/>
<path d="M119.238 92.0752V89.8672" stroke="#263238" stroke-linecap="round" stroke-linejoin="round"/>
<path d="M123.57 92.0752V89.8672" stroke="#263238" stroke-linecap="round" stroke-linejoin="round"/>
<path d="M127.902 92.0752V89.8672" stroke="#263238" stroke-linecap="round" stroke-linejoin="round"/>
<path d="M139.365 68.0901V89.4309C139.365 90.8901 137.877 92.0757 136.039 92.0757H46.0725C44.8533 92.0757 43.7829 91.5525 43.2069 90.7701C42.9141 90.3765 42.7461 89.9205 42.7461 89.4309V68.0901C42.7461 66.6309 44.2341 65.4453 46.0725 65.4453H136.039C137.877 65.4453 139.365 66.6309 139.365 68.0901Z" stroke="#92E3A9" stroke-linecap="round" stroke-linejoin="round"/>
<path d="M111.987 26.7576L83.2683 65.4408L72.2859 80.2344L60.2907 72.5928L45.6123 92.0712H45.4011C44.4315 92.0712 43.5771 91.548 43.1211 90.7656L59.6187 68.8728L71.6043 76.5048L79.8171 65.436L109.764 25.1016L111.991 26.7528L111.987 26.7576Z" fill="#263238"/>
<path d="M104.699 27.2461L115.254 20.8477L112.336 31.9165L110.474 26.7949L104.699 27.2461Z" fill="#263238"/>
<path d="M204.592 149.051H35.781L16.8594 165.875" stroke="#263238" stroke-linecap="round" stroke-linejoin="round"/>
<path d="M35.8867 137.271V104.559" stroke="#263238" stroke-linecap="round" stroke-linejoin="round"/>
<path d="M35.8867 147.151V140.824" stroke="#263238" stroke-linecap="round" stroke-linejoin="round"/>
<path d="M194.429 69.4671C194.429 69.4671 194.429 67.4895 191.659 64.7199C188.89 61.9503 187.114 60.3711 187.114 60.3711C187.114 60.3711 185.731 64.9167 188.299 67.6863C190.191 69.6399 192.24 71.4303 194.429 73.0383V69.4671Z" fill="#92E3A9"/>
<path d="M190.413 81.8187C190.413 81.8187 190.413 79.8411 187.644 77.0715C184.874 74.3019 183.098 72.7227 183.098 72.7227C183.098 72.7227 181.716 77.2683 184.284 80.0379C186.175 81.9867 188.225 83.7771 190.413 85.3899V81.8187Z" fill="#92E3A9"/>
<path d="M194.254 72.8368C194.254 72.8368 194.461 70.8688 197.509 68.4112C200.557 65.9488 202.486 64.5664 202.486 64.5664C202.486 64.5664 203.384 69.2464 200.533 71.7136C198.449 73.4512 196.222 75.0112 193.875 76.3744L194.254 72.8368Z" fill="#92E3A9"/>
<path d="M189.401 87.4179C189.401 87.4179 189.814 85.4835 193.102 83.3571C196.385 81.2307 198.454 80.0547 198.454 80.0547C198.454 80.0547 198.857 84.7923 195.781 86.9619C193.525 88.4691 191.144 89.7843 188.672 90.8931L189.406 87.4131L189.401 87.4179Z" fill="#92E3A9"/>
<path d="M190.316 103.31C190.316 103.31 190.316 101.332 193.081 98.5676C195.846 95.8028 197.632 94.2188 197.632 94.2188C197.632 94.2188 199.014 98.7692 196.446 101.534C194.56 103.488 192.51 105.278 190.321 106.886V103.31H190.316Z" fill="#92E3A9"/>
<path d="M190.269 107.194C190.269 107.194 190.552 105.236 188.2 102.106C185.853 98.9715 184.317 97.1523 184.317 97.1523C184.317 97.1523 182.31 101.458 184.456 104.564C186.05 106.757 187.826 108.816 189.765 110.717L190.269 107.194Z" fill="#92E3A9"/>
<path d="M187.539 118.693C187.539 118.693 187.539 116.715 190.304 113.95C193.069 111.186 194.854 109.602 194.854 109.602C194.854 109.602 196.237 114.152 193.669 116.917C191.782 118.87 189.733 120.661 187.544 122.269V118.693H187.539Z" fill="#92E3A9"/>
<path d="M189.384 129.12C189.384 129.12 188.885 127.205 190.867 123.821C192.845 120.437 194.165 118.469 194.165 118.469C194.165 118.469 196.651 122.52 194.871 125.846C193.536 128.208 192.005 130.454 190.291 132.562L189.384 129.115V129.12Z" fill="#92E3A9"/>
<path d="M194.68 68.9766C194.541 71.0358 194.286 73.0854 193.921 75.111C192.827 80.7606 190.091 84.4134 188.997 89.5158C187.902 94.6182 191.041 101.199 190.206 107.761C189.366 114.317 186.813 117.965 187.533 122.343C188.253 126.721 192.093 138.572 192.093 138.572" stroke="#263238" stroke-width="1.18" stroke-linecap="round" stroke-linejoin="round"/>
<path d="M194.23 74.1538L197.211 71.8594" stroke="#263238" stroke-width="1.18" stroke-linecap="round" stroke-linejoin="round"/>
<path d="M194.364 71.5154L193.121 69.293" stroke="#263238" stroke-width="1.18" stroke-linecap="round" stroke-linejoin="round"/>
<path d="M189.164 89.2713C189.164 89.2713 191.66 87.3993 194.228 85.5273" stroke="#263238" stroke-width="1.18" stroke-linecap="round" stroke-linejoin="round"/>
<path d="M190.413 85.3653C190.413 85.3653 188.334 81.2853 185.973 78.5781" stroke="#263238" stroke-width="1.18" stroke-linecap="round" stroke-linejoin="round"/>
<path d="M190.414 106.123C191.844 103.497 193.644 101.088 195.766 98.9805" stroke="#263238" stroke-width="1.18" stroke-linecap="round" stroke-linejoin="round"/>
<path d="M189.928 108.899C189.17 107.113 188.263 105.39 187.221 103.753C185.762 101.603 185.551 101.324 185.551 101.324" stroke="#263238" stroke-width="1.18" stroke-linecap="round" stroke-linejoin="round"/>
<path d="M187.539 122.331C188.173 120.762 188.921 119.24 189.785 117.781C190.649 116.432 191.624 115.155 192.699 113.965" stroke="#263238" stroke-width="1.18" stroke-linecap="round" stroke-linejoin="round"/>
<path d="M190.288 132.565C190.288 132.565 189.995 130.198 191.037 128.187C192.078 126.176 193.254 123.541 193.744 122.504" stroke="#263238" stroke-width="1.18" stroke-linecap="round" stroke-linejoin="round"/>
<path d="M176.305 95.8781C176.305 95.8781 176.089 94.6397 177.524 92.6045C178.964 90.5693 179.9 89.3789 179.9 89.3789C179.9 89.3789 181.263 92.0765 179.948 94.0925C178.973 95.5181 177.884 96.8621 176.684 98.1053L176.3 95.8781H176.305Z" fill="#92E3A9"/>
<path d="M180.164 103.187C180.164 103.187 179.948 101.948 181.383 99.9083C182.818 97.8731 183.764 96.6875 183.764 96.6875C183.764 96.6875 185.127 99.3899 183.812 101.401C182.838 102.827 181.748 104.171 180.548 105.414L180.164 103.182V103.187Z" fill="#92E3A9"/>
<path d="M176.781 97.9709C176.781 97.9709 176.445 96.7613 174.261 95.5517C172.072 94.3421 170.719 93.6797 170.719 93.6797C170.719 93.6797 170.666 96.6893 172.725 97.9517C174.223 98.8109 175.788 99.5453 177.405 100.15L176.781 97.9709Z" fill="#92E3A9"/>
<path d="M181.41 106.586C181.41 106.586 180.939 105.419 178.65 104.44C176.36 103.466 174.93 102.957 174.93 102.957C174.93 102.957 175.194 105.967 177.368 106.994C178.947 107.695 180.579 108.261 182.254 108.688L181.41 106.586Z" fill="#92E3A9"/>
<path d="M182.56 116.656C182.56 116.656 182.344 115.417 180.309 113.982C178.274 112.547 176.983 111.75 176.983 111.75C176.983 111.75 176.608 114.76 178.519 116.209C179.916 117.222 181.394 118.12 182.94 118.883L182.556 116.66L182.56 116.656Z" fill="#92E3A9"/>
<path d="M183.006 119.085C183.006 119.085 182.617 117.89 183.75 115.673C184.878 113.455 185.651 112.145 185.651 112.145C185.651 112.145 187.379 114.626 186.371 116.805C185.603 118.356 184.71 119.839 183.697 121.241L183.011 119.085H183.006Z" fill="#92E3A9"/>
<path d="M186.482 129.085C186.482 129.085 186.626 127.832 188.575 126.286C190.523 124.736 191.767 123.867 191.767 123.867C191.767 123.867 192.314 126.838 190.485 128.403C189.151 129.498 187.725 130.477 186.223 131.331L186.482 129.08V129.085Z" fill="#92E3A9"/>
<path d="M185.97 126.003C185.97 126.003 185.754 124.765 183.718 123.33C181.683 121.894 180.397 121.098 180.397 121.098C180.397 121.098 180.022 124.107 181.933 125.557C183.33 126.57 184.808 127.467 186.358 128.23L185.97 126.008V126.003Z" fill="#92E3A9"/>
<path d="M185.941 132.742C185.941 132.742 186.047 131.489 184.444 129.584C182.841 127.683 181.794 126.574 181.794 126.574C181.794 126.574 180.671 129.382 182.154 131.278C183.249 132.617 184.453 133.861 185.754 134.998L185.946 132.742H185.941Z" fill="#92E3A9"/>
<path d="M176.09 95.5898C176.402 96.8666 176.781 98.1242 177.232 99.3578C178.528 102.78 180.64 104.772 181.879 107.854C183.117 110.935 181.879 115.404 183.103 119.422C184.327 123.439 186.338 125.441 186.357 128.278C186.371 131.115 185.258 138.948 185.258 138.948" stroke="#263238" stroke-width="1.18" stroke-linecap="round" stroke-linejoin="round"/>
<path d="M176.941 98.7885L174.824 97.6797" stroke="#263238" stroke-width="1.18" stroke-linecap="round" stroke-linejoin="round"/>
<path d="M176.566 97.1553L177.109 95.6289" stroke="#263238" stroke-width="1.18" stroke-linecap="round" stroke-linejoin="round"/>
<path d="M181.76 107.722C181.76 107.722 179.989 106.819 178.18 105.922" stroke="#263238" stroke-width="1.18" stroke-linecap="round" stroke-linejoin="round"/>
<path d="M180.551 105.429C181.069 103.787 181.756 102.199 182.596 100.691" stroke="#263238" stroke-width="1.18" stroke-linecap="round" stroke-linejoin="round"/>
<path d="M182.804 118.429C181.623 116.936 180.236 115.621 178.676 114.531" stroke="#263238" stroke-width="1.18" stroke-linecap="round" stroke-linejoin="round"/>
<path d="M183.41 120.116C183.693 118.916 184.073 117.74 184.548 116.602C185.215 115.095 185.33 114.898 185.33 114.898" stroke="#263238" stroke-width="1.18" stroke-linecap="round" stroke-linejoin="round"/>
<path d="M186.27 130.418C186.27 130.418 187.671 128.7 188.545 128.052C189.073 127.663 189.567 127.231 190.023 126.766" stroke="#263238" stroke-width="1.18" stroke-linecap="round" stroke-linejoin="round"/>
<path d="M186.361 128.279C185.795 127.362 185.156 126.488 184.46 125.672C183.769 124.919 183.02 124.227 182.219 123.594" stroke="#263238" stroke-width="1.18" stroke-linecap="round" stroke-linejoin="round"/>
<path d="M185.754 134.998C185.682 134.038 185.361 133.116 184.814 132.324C183.94 131.172 182.913 129.651 182.5 129.051" stroke="#263238" stroke-width="1.18" stroke-linecap="round" stroke-linejoin="round"/>
<path d="M194.968 152.468H182.364C181.845 152.468 181.423 152.045 181.423 151.527L179.613 137.578H197.714L195.904 151.527C195.904 152.045 195.482 152.468 194.964 152.468H194.968Z" fill="#263238"/>
<path d="M197.558 139.94H179.615C178.838 139.94 178.204 139.311 178.199 138.533C178.199 137.751 178.833 137.117 179.615 137.117H197.562C198.345 137.117 198.978 137.746 198.978 138.528C198.969 139.311 198.34 139.935 197.562 139.935L197.558 139.94Z" fill="#263238"/>
<path d="M164.707 192.605C160.214 197.942 154.934 202.618 148.943 206.213C147.067 207.336 145.151 208.334 143.188 209.217C129.551 215.347 114.009 215.746 99.4699 212.222C68.9131 204.816 52.6939 177.84 50.6395 147.897C50.0827 139.8 48.8443 131.064 52.1227 123.365C55.3723 115.733 62.0299 110.89 69.5275 107.558C74.9707 105.139 80.8507 103.507 86.1931 102.182C95.9179 99.7679 106.003 100.872 115.031 105.158C121.315 108.139 125.793 113.299 131.078 117.677C131.639 118.138 132.201 118.598 132.767 119.054C138.105 123.35 143.726 127.301 149.577 130.867C158.462 136.286 167.558 141.398 173.231 150.499C182.279 165 174.638 180.797 164.702 192.605H164.707Z" fill="#92E3A9"/>
<path opacity="0.4" d="M164.707 192.605C160.214 197.942 154.934 202.618 148.943 206.213C147.067 207.336 145.151 208.334 143.188 209.217C129.551 215.347 114.009 215.746 99.4699 212.222C68.9131 204.816 52.6939 177.84 50.6395 147.897C50.0827 139.8 48.8443 131.064 52.1227 123.365C55.3723 115.733 62.0299 110.89 69.5275 107.558C74.9707 105.139 80.8507 103.507 86.1931 102.182C95.9179 99.7679 106.003 100.872 115.031 105.158C121.315 108.139 125.793 113.299 131.078 117.677C131.639 118.138 132.201 118.598 132.767 119.054C138.105 123.35 143.726 127.301 149.577 130.867C158.462 136.286 167.558 141.398 173.231 150.499C182.279 165 174.638 180.797 164.702 192.605H164.707Z" fill="white"/>
<path d="M132.772 119.054C132.206 118.598 131.644 118.138 131.083 117.677C125.798 113.299 121.319 108.139 115.036 105.158C106.003 100.872 95.9179 99.7679 86.1931 102.182C73.4875 105.336 57.7291 110.189 52.1227 123.365C48.8443 131.064 50.0827 139.8 50.6395 147.893C52.6987 177.84 68.9083 204.816 99.4699 212.222C116.102 216.254 134.039 215.15 148.948 206.213C154.939 202.622 160.219 197.942 164.707 192.605C174.643 180.797 182.289 165.005 173.241 150.499C167.563 141.398 158.471 136.286 149.582 130.867C143.731 127.301 138.11 123.35 132.772 119.05V119.054Z" stroke="#263238" stroke-miterlimit="10"/>
<path d="M86.4518 172.453C83.9318 173.231 81.3926 174.205 79.0742 175.42" stroke="#263238" stroke-linecap="round" stroke-linejoin="round"/>
<path d="M102.052 169.492C102.052 169.492 97.0555 169.833 90.9883 171.239" stroke="#263238" stroke-linecap="round" stroke-linejoin="round"/>
<path d="M98.7888 168.721C98.7888 168.721 84.4464 160.378 67.1328 167.065" stroke="#263238" stroke-linecap="round" stroke-linejoin="round"/>
<path opacity="0.1" d="M164.706 192.605C160.213 197.942 154.933 202.618 148.943 206.213C147.066 207.336 145.151 208.334 143.187 209.218C141.627 208.738 140.096 208.181 138.594 207.533C129.637 203.688 122.12 197.198 114.776 190.79C110.346 186.931 105.843 183.014 100.544 180.485C93.4594 177.101 85.117 176.414 77.5762 178.598C81.469 174.173 86.941 171.163 92.7634 170.242C88.9762 166.795 83.6963 165.346 78.5699 165.25C73.4434 165.149 70.621 165.787 65.6146 166.91C67.285 163.829 71.7346 161.04 75.2434 161.122C71.7346 161.04 67.7314 160.805 65.269 160.416C60.7378 159.686 58.717 154.358 58.0402 149.832C56.1682 137.357 58.0642 124.061 64.8754 113.453C66.3011 111.23 67.8562 109.282 69.5362 107.558C74.9794 105.139 80.8594 103.507 86.2018 102.182C95.9266 99.7679 106.011 100.872 115.04 105.158C121.323 108.139 125.802 113.299 131.087 117.677C131.648 118.138 132.21 118.598 132.776 119.054C138.114 123.35 143.735 127.301 149.586 130.867C158.471 136.286 167.567 141.398 173.24 150.499C182.288 165 174.647 180.797 164.711 192.605H164.706Z" fill="black"/>
<path d="M169.691 192.254C169.691 192.254 173.723 195.648 178.119 198.47C183.827 198.854 181.268 205.756 181.268 205.756L176.382 208.896C176.382 208.896 168.035 202.262 163.479 200.107C158.924 197.952 169.686 192.259 169.686 192.259L169.691 192.254Z" fill="white"/>
<path opacity="0.3" d="M129.153 119.621C129.153 119.621 128.37 111.879 127.122 109.7L108.172 105.826V104.357C108.172 104.357 108.609 101.804 104.385 100.205C100.161 98.6069 91.3576 100.685 89.092 102.404C86.8216 104.122 87.652 107.079 87.652 107.079C87.652 107.079 80.0152 110.948 76.5832 112.421C73.1512 113.895 68.3848 116.741 68.3848 116.741C68.3848 116.741 66.8344 134.535 67.1368 138.668C67.4392 142.801 66.892 146.689 67.2424 148.978C67.5976 151.268 67.876 152.569 70.2808 154.517C72.6856 156.466 74.86 159.341 81.1576 156.49L80.2792 155.794L121.722 141.86L129.158 119.617L129.153 119.621Z" fill="black"/>
<path d="M129.153 119.621C129.153 119.621 128.37 111.879 127.122 109.7L108.172 105.826V104.357C108.172 104.357 108.609 101.804 104.385 100.205C100.161 98.6069 91.3576 100.685 89.092 102.404C86.8216 104.122 87.652 107.079 87.652 107.079C87.652 107.079 80.0152 110.948 76.5832 112.421C73.1512 113.895 68.3848 116.741 68.3848 116.741C68.3848 116.741 66.8344 134.535 67.1368 138.668C67.4392 142.801 66.892 146.689 67.2424 148.978C67.5976 151.268 67.876 152.569 70.2808 154.517C72.6856 156.466 74.86 159.341 81.1576 156.49L80.2792 155.794L121.722 141.86L129.158 119.617L129.153 119.621Z" fill="#92E3A9"/>
<path opacity="0.05" d="M129.153 119.621C129.153 119.621 128.37 111.879 127.122 109.7L108.172 105.826V104.357C108.172 104.357 108.609 101.804 104.385 100.205C100.161 98.6069 91.3576 100.685 89.092 102.404C86.8216 104.122 87.652 107.079 87.652 107.079C87.652 107.079 80.0152 110.948 76.5832 112.421C73.1512 113.895 68.3848 116.741 68.3848 116.741C68.3848 116.741 66.8344 134.535 67.1368 138.668C67.4392 142.801 66.892 146.689 67.2424 148.978C67.5976 151.268 67.876 152.569 70.2808 154.517C72.6856 156.466 74.86 159.341 81.1576 156.49L80.2792 155.794L121.722 141.86L129.158 119.617L129.153 119.621Z" fill="black"/>
<path opacity="0.1" d="M127.372 110.637H119.443C117.902 110.637 116.587 111.75 116.337 113.272L112.43 136.811C112.43 136.811 107.049 137.258 103.238 140.042C99.4269 142.826 90.0525 122.992 75.2397 122.982C75.2397 122.982 79.5021 132.726 80.4477 140.502C80.4477 140.502 71.1885 139.494 69.6525 143.118C68.1165 146.742 70.3533 153.534 74.2653 150.909C78.1773 148.283 81.8493 143.882 84.4893 146.642C87.1293 149.402 98.7933 150.909 98.7933 150.909L116.779 141.875L123.753 138.597L127.377 110.651L127.372 110.637Z" fill="black"/>
<path opacity="0.4" d="M102.196 98.9883C102.196 98.9883 106.698 100.236 107.428 101.748C108.158 103.255 108.081 107.086 108.081 107.086C108.081 107.086 106.852 110.484 103.238 113.748L99.8776 107.086L100.18 114.646C100.18 114.646 93.8056 113.585 91.1032 111.545L88.4008 109.505C88.4008 109.505 87.2392 105.679 87.4024 104.369C87.5656 103.059 92.4472 100.423 92.4472 100.423L102.206 98.9883H102.196Z" fill="white"/>
<path d="M177.193 215.486C177.068 215.207 179.041 211.727 177.5 208.18C175.954 204.633 173.492 206.001 173.492 206.001C173.492 206.001 166.479 201.537 163.532 200.131C160.585 198.719 157.412 196.492 157.412 196.492L154.297 200.687L157.177 209.596L177.198 215.491L177.193 215.486Z" fill="#92E3A9"/>
<path d="M173.231 205.781L182.236 211.287C182.236 211.287 188.567 207.226 191.587 204.418C194.611 201.615 201.364 195.648 201.364 195.648L205.675 189.836C205.675 189.836 202.679 186.13 197.687 189.106C191.236 192.956 183.369 198.519 178.118 198.466C178.118 198.466 179.155 204.912 173.227 205.781" fill="#92E3A9"/>
<path d="M100.668 75.7118C100.668 75.7118 104.757 81.8942 105.497 83.8958C106.241 85.8974 106.841 88.859 106.687 90.2846C106.533 91.7102 105.045 99.347 104.273 99.5678L103.548 100.389L104.013 103.624C104.013 103.624 100.817 109.153 91.4183 105.097C91.4183 105.097 91.0535 98.6414 89.9111 96.6206C88.7687 94.595 87.0599 97.0046 85.3511 91.1534C83.6423 85.3022 89.0951 79.1774 89.0951 79.1774L100.673 75.707L100.668 75.7118Z" fill="white"/>
<path opacity="0.5" d="M201.787 188.031C201.787 188.031 197.159 188.833 195.657 191.574C194.155 194.314 191.27 199.412 190.286 201.874C189.302 204.337 181.156 210.284 181.156 210.284L182.236 211.287C182.236 211.287 188.86 207.193 192.859 203.3C196.852 199.407 205.675 189.615 205.675 189.615C205.675 189.615 205.046 188.986 201.782 188.031H201.787Z" fill="white"/>
<path opacity="0.5" d="M155.439 199.145L154.297 200.685L157.82 207.991L177.198 214.956L178.095 212.119C178.095 212.119 178.393 209.229 171.591 207.05C164.79 204.871 160.642 203.417 158.708 201.914C156.774 200.407 155.439 199.149 155.439 199.149V199.145Z" fill="white"/>
<path d="M91.4665 144.879C91.4665 144.879 85.5337 143.986 82.7641 148.843C79.9945 153.696 80.2777 155.799 80.2777 155.799C80.2777 155.799 84.1945 159.36 89.5849 159.178C94.9753 158.995 102.833 152.784 105.391 150.773C107.95 148.762 114.401 143.007 118.802 144.197L119.287 140.035C119.287 140.035 118.86 138.168 115.092 138.672C111.324 139.176 109.85 141.322 108.641 141.322C107.431 141.322 106.279 140.155 103.826 144.322C103.826 144.322 95.2681 145.839 91.4665 144.883V144.879Z" fill="white"/>
<path d="M99.1797 84.6055C99.3045 85.3831 99.4821 86.1511 99.7173 86.9047C99.8325 87.2695 99.9621 87.6391 100.221 87.9175C100.672 88.4167 101.402 88.5223 102.069 88.6231C102.18 88.6375 102.3 88.6615 102.367 88.7479C102.429 88.8247 102.439 88.9351 102.439 89.0359C102.439 89.7847 102.208 90.5335 101.791 91.1575" stroke="#263238" stroke-linecap="round" stroke-linejoin="round"/>
<path opacity="0.1" d="M159.422 194.18L155.438 199.138C155.438 199.138 159.805 203.175 164.332 204.668C168.853 206.165 176.769 208.997 178.094 211.167L177.585 208.56C177.585 208.56 165.21 200.967 162.364 199.152C159.518 197.338 159.426 194.18 159.426 194.18H159.422Z" fill="black"/>
<path opacity="0.1" d="M173.231 205.783L181.156 210.285C181.156 210.285 185.059 207.616 186.988 205.629C188.918 203.642 191.27 201.472 192.724 197.047C194.735 190.936 200.495 188.027 200.495 188.027C200.495 188.027 192.484 191.795 188.313 194.762C184.142 197.723 180.076 198.957 177.715 198.755C177.715 198.755 179.611 204.76 173.227 205.783H173.231Z" fill="black"/>
<path d="M96.3828 92.2422C96.3828 92.2422 99.498 94.6854 102.733 93.7686C102.733 93.7686 99.6804 99.8166 96.3828 92.2422Z" fill="white" stroke="#263238" stroke-linecap="round" stroke-linejoin="round"/>
<path d="M96.2859 86.9644C96.3771 87.6364 96.1755 88.2172 95.8347 88.2652C95.4939 88.3084 95.1483 87.8044 95.0571 87.1276C94.9659 86.4556 95.1675 85.8748 95.5083 85.8268C95.8491 85.7836 96.1947 86.2876 96.2859 86.9644Z" fill="#263238"/>
<path d="M103.052 85.7457C103.143 86.4177 102.941 86.9985 102.6 87.0465C102.26 87.0897 101.914 86.5857 101.823 85.9089C101.732 85.2369 101.933 84.6561 102.274 84.6081C102.615 84.5649 102.96 85.0689 103.052 85.7457Z" fill="#263238"/>
<path d="M95.7979 84.1126C95.7979 84.1126 93.9835 83.1766 92.6875 85.183" stroke="#263238" stroke-linecap="round" stroke-linejoin="round"/>
<path d="M100.438 82.8685C100.438 82.8685 102.353 81.2221 103.466 82.8685" stroke="#263238" stroke-linecap="round" stroke-linejoin="round"/>
<path d="M89.6252 90.2888C89.6252 90.2888 88.4588 88.5656 87.2348 88.6184C86.0108 88.676 85.5116 90.3992 85.958 92.0648C86.4044 93.7304 88.238 96.068 89.63 95.8472C91.022 95.6264 91.6316 94.7336 91.6316 94.7336" stroke="#263238" stroke-linecap="round" stroke-linejoin="round"/>
<path d="M100.807 77.1094C102.122 78.1942 103.504 79.3846 104.191 80.9878C104.776 82.351 104.911 83.8582 105.444 85.2454C106.015 86.719 106.644 88.2646 106.692 89.8726C106.735 91.3366 106.404 92.8582 106.111 94.2838C105.861 95.5174 105.664 96.7894 105.223 97.975C104.58 99.6982 103.38 100.759 101.776 101.575C100.61 102.17 98.666 103.025 97.4036 102.218C96.6692 101.748 95.5652 100.365 94.6484 99.103" stroke="#263238" stroke-linecap="round" stroke-linejoin="round"/>
<path d="M89.625 95.8516C89.625 95.8516 91.689 100.911 91.185 104.472" stroke="#263238" stroke-linecap="round" stroke-linejoin="round"/>
<path d="M89.0984 89.4397C89.6504 89.0413 89.9672 88.3357 89.9 87.6589C89.8232 86.8813 89.2808 86.1613 89.3912 85.3885C89.444 85.0093 89.6504 84.6685 89.804 84.3181C90.3704 83.0365 90.2792 81.4813 89.5544 80.2813C89.5544 80.2813 96.1112 80.5885 99.1832 78.6349C102.255 76.6813 104.593 71.6845 102.74 69.2989C100.882 66.9085 97.2632 70.1677 94.5848 70.5277C91.9064 70.8877 82.3544 72.4093 80.8328 76.1005C79.3112 79.7917 81.6296 81.0973 81.7016 84.6061C81.7736 88.1149 81.7688 94.7629 87.02 94.1533C87.02 94.1533 85.0568 91.6141 86.42 88.9981C87.3464 87.8845 89.1032 89.4445 89.1032 89.4445L89.0984 89.4397Z" fill="#263238"/>
<path d="M101.956 73.4414C101.956 73.4414 104.654 75.2414 105.096 79.2062C105.388 81.8366 110.054 86.9486 106.694 89.8622C106.694 89.8622 105.912 86.7662 105.446 85.235C104.985 83.7086 104.4 80.9246 103.622 79.9502C102.849 78.9758 98.75 75.6494 98.75 75.6494L101.956 73.4414Z" fill="#263238"/>
<path d="M90.2335 104.361C90.2335 104.361 93.4687 106.487 99.4783 106.579L100.179 114.638C100.179 114.638 93.4255 114.124 88.3951 109.502C88.3951 109.502 87.0367 105.907 87.3967 104.366C87.7567 102.82 90.9727 101.289 90.9727 101.289" stroke="#263238" stroke-linecap="round" stroke-linejoin="round"/>
<path d="M103.821 100.754L104.013 103.624C101.829 105.861 99.4727 106.581 99.4727 106.581L103.236 113.747C103.236 113.747 107.719 110.253 108.17 106.581C108.17 106.581 108.209 102.818 107.426 101.747C106.649 100.672 103.793 100.168 103.793 100.168" stroke="#263238" stroke-linecap="round" stroke-linejoin="round"/>
<path opacity="0.8" d="M85.6172 78.4799C86.102 77.2751 87.4124 76.5791 88.694 76.3631C89.9756 76.1471 91.2908 76.3055 92.5868 76.2719C94.3676 76.2239 96.1676 75.7967 97.6748 74.8415C99.182 73.8863 100.372 72.3791 100.747 70.6367" stroke="white" stroke-linecap="round" stroke-linejoin="round"/>
<path opacity="0.8" d="M82.5156 78.2505C83.3316 75.7833 85.9572 74.2665 88.5444 74.0457C89.826 73.9353 91.122 74.0889 92.3988 73.9401C93.6756 73.7913 95.0052 73.2633 95.6724 72.1641" stroke="white" stroke-linecap="round" stroke-linejoin="round"/>
<path d="M81.1586 156.489C74.9282 159.725 72.701 156.398 69.2258 153.643C65.7506 150.888 68.0258 145.977 67.3106 138.067C66.5906 130.161 68.3906 116.741 68.3906 116.741C68.3906 116.741 69.9458 116.381 74.261 113.741C78.5762 111.101 87.6578 107.078 87.6578 107.078" stroke="#263238" stroke-linecap="round" stroke-linejoin="round"/>
<path d="M87.3364 144.545C87.3364 144.545 86.3476 141.411 83.5492 141.324C80.7556 141.238 76.3492 142.5 73.2148 148.443" stroke="#263238" stroke-linecap="round" stroke-linejoin="round"/>
<path d="M82.9135 141.137C82.7407 141.137 82.5727 141.074 82.4095 141.017C80.1247 140.191 77.5855 140.076 75.2383 140.69" stroke="#263238" stroke-linecap="round" stroke-linejoin="round"/>
<path d="M73.6367 121.023C78.7151 126.639 81.1967 134.07 83.5439 141.27" stroke="#263238" stroke-linecap="round" stroke-linejoin="round"/>
<path d="M108.172 105.828C108.172 105.828 117.388 108.027 121.89 108.55C126.393 109.073 127.122 109.702 127.122 109.702L127.957 112.841" stroke="#263238" stroke-linecap="round" stroke-linejoin="round"/>
<path d="M151.123 111.305L119.736 112.509L117.168 144.794H122.549L149.798 138.689L153.23 112.082L151.123 111.305Z" fill="white"/>
<path d="M118.805 145.749L153.129 112.84L149.798 138.688L118.805 145.749Z" fill="#92E3A9"/>
<path opacity="0.7" d="M118.805 145.749L153.129 112.84L149.798 138.688L118.805 145.749Z" fill="white"/>
<path d="M118.805 144.88L121.545 113.743L153.23 112.082L149.798 138.688L118.805 144.88Z" stroke="#263238" stroke-linecap="round" stroke-linejoin="round"/>
<path d="M139.878 127.161C139.662 129.057 138.649 130.497 137.617 130.382C136.58 130.267 135.918 128.635 136.129 126.739C136.34 124.843 137.358 123.403 138.39 123.518C139.427 123.633 140.089 125.265 139.878 127.161Z" fill="#263238"/>
<path d="M149.796 138.687C149.796 138.687 164.301 138.274 168.837 141.27C173.373 144.265 176.032 159.284 175.408 167.262C174.784 175.239 169.308 193.546 169.308 193.546L158.825 181.657C158.825 181.657 153.66 162.884 156.477 155.53C156.477 155.53 142.552 156.313 137.076 154.59C137.076 154.59 132.165 146.55 123.746 143.89L149.791 138.687H149.796Z" fill="#263238"/>
<path d="M171.524 193.859C167.094 189.847 162.822 184.327 161.55 182.363C156.476 174.525 149.463 166.984 142.249 161.133C136.431 156.415 135.116 148.735 127.945 144.885C116.07 138.515 105.798 151.173 101.958 153.736C98.1176 156.295 91.4648 159.184 91.4648 159.184C91.4648 159.184 93.8888 168.285 101.022 169.384C108.154 170.483 115.374 165.544 118.801 167.925C122.233 170.296 124.738 180.909 136.009 187.125C145.22 192.203 157.772 197.162 164.247 200.498C165.697 201.247 166.762 202.034 167.578 202.48C169.815 203.699 172.206 205.139 174.462 206.555L182.233 211.288C182.233 211.288 190.033 206.675 193.028 202.423C193.431 201.851 194.257 200.33 195.034 198.861C196.734 195.655 198.865 192.775 201.846 191.171C203.9 190.067 205.734 189.727 205.671 189.616C205.474 189.251 201.75 187.346 199.22 188.387C193.863 190.595 183.159 199.101 178.119 198.472C178.119 198.472 174.447 196.514 171.519 193.864L171.524 193.859Z" stroke="#263238" stroke-miterlimit="10"/>
<path d="M171.522 193.858C166.852 195.744 164.97 198.653 164.25 200.491C157.775 197.155 145.223 192.197 136.012 187.119C124.741 180.898 122.236 170.29 118.804 167.919C115.372 165.538 108.153 170.477 101.025 169.378C93.8967 168.279 91.4727 159.173 91.4727 159.173C91.4727 159.173 98.1254 156.288 101.965 153.73C105.805 151.171 114.661 138.504 127.953 144.879C135.292 148.397 136.439 156.413 142.257 161.127C149.471 166.978 156.484 174.519 161.557 182.357C162.825 184.32 167.087 189.855 171.532 193.853L171.522 193.858Z" fill="#263238"/>
<path d="M136.43 153.171C136.43 153.171 132.835 145.865 127.07 144.449" stroke="white" stroke-linecap="round" stroke-linejoin="round"/>
<path d="M117.583 138.621C113.618 137.757 109.265 142.14 107.431 141.319C106.068 140.709 103.826 144.319 103.826 144.319C103.826 144.319 98.0229 145.216 92.6805 144.88C87.3381 144.544 84.8085 145.581 82.9173 148.442L80.2773 155.431C80.2773 155.431 87.2373 161.68 94.6773 158.037C102.117 154.399 111.996 143.445 118.802 143.484" stroke="#263238" stroke-linecap="round" stroke-linejoin="round"/>
<path d="M172.93 205.595C172.93 205.595 179.443 206.132 177.912 198.352" stroke="#263238" stroke-miterlimit="10"/>
<path d="M203.604 193.545C203.109 194.525 197.153 199.584 192.012 204.024C192.026 203.957 193.433 201.245 194.052 200.088C195.415 197.534 198.948 190.531 205.677 189.609C206.633 190.185 203.604 193.545 203.604 193.545Z" fill="#263238"/>
<path d="M201.044 188.078C194.242 189.437 192.701 198.149 190.282 201.873C187.868 205.598 181.152 210.629 181.152 210.629" stroke="#263238" stroke-miterlimit="10"/>
<path d="M177.499 208.397C178.603 210.428 178.08 212.775 177.499 214.248C177.01 215.487 176.434 216.346 176.434 216.346C166.805 214.762 157.176 209.592 157.176 209.592L154.694 201.912L154.301 200.684L158.04 195.648" stroke="#263238" stroke-miterlimit="10"/>
<path d="M177.5 214.25C177.011 215.488 176.435 216.348 176.435 216.348C166.806 214.764 157.177 209.594 157.177 209.594L154.695 201.914C155.939 203.536 158.243 205.912 161.699 206.892C166.388 208.216 175.043 209.776 177.5 214.255V214.25Z" fill="#263238"/>
<path d="M117.168 143.671L119.736 112.509L151.123 111.305L153.23 112.082" stroke="#263238" stroke-linecap="round" stroke-linejoin="round"/>
<path d="M177.844 201.874C177.844 201.874 182.135 202.637 185.433 199.949C188.73 197.261 194.044 191.18 194.044 191.18" stroke="#263238" stroke-miterlimit="10"/>
<path d="M182.234 197.992C182.234 197.992 181.197 199.552 182.234 202.687" stroke="#263238" stroke-linecap="round" stroke-linejoin="round"/>
<path d="M185.28 196.508C185.28 196.508 184.45 198.841 185.669 201.202" stroke="#263238" stroke-linecap="round" stroke-linejoin="round"/>
<path d="M188.91 194.406C188.91 194.406 188.041 197.013 188.91 199.312" stroke="#263238" stroke-linecap="round" stroke-linejoin="round"/>
<path d="M158.884 195L155.438 199.142C155.438 199.142 158.908 202.93 163.794 204.499C168.681 206.074 177.426 208.747 178.146 211.594" stroke="#263238" stroke-miterlimit="10"/>
</svg>
