<svg width="160" height="160" viewBox="0 0 160 160" fill="none" xmlns="http://www.w3.org/2000/svg">
<path d="M55.2019 124.32C55.5219 124.48 55.8419 124.8 56.1619 125.12C56.4819 125.44 56.4819 125.92 56.4819 126.4C56.4819 127.2 56.1619 127.68 55.6819 128.16C55.2019 128.64 54.5619 128.96 53.7619 128.96H49.9219V120H53.4419C54.2419 120 54.7219 120.16 55.3619 120.64C55.8419 121.12 56.1619 121.76 56.1619 122.4C56.1619 123.2 55.8419 123.84 55.2019 124.32ZM53.6019 121.44H51.5219V123.84H53.6019C53.9219 123.84 54.2419 123.68 54.4019 123.52C54.5619 123.36 54.7219 123.04 54.7219 122.72C54.7219 122.4 54.5619 122.08 54.4019 121.92C54.2419 121.76 53.9219 121.44 53.6019 121.44ZM53.7619 127.52C54.0819 127.52 54.4019 127.36 54.5619 127.2C54.7219 126.88 54.8819 126.72 54.8819 126.24C54.8819 125.92 54.7219 125.6 54.5619 125.28C54.4019 124.96 54.0819 124.96 53.7619 124.96H51.3619V127.52H53.7619Z" fill="#44475B"/>
<path d="M58.082 120H59.522V128.96H58.082V120Z" fill="#44475B"/>
<path d="M67.3608 120V121.44H64.8008V128.96H63.3608V121.44H60.8008V120H67.3608Z" fill="#44475B"/>
<path d="M71.52 129.12C70.72 129.12 69.92 128.96 69.28 128.48C68.64 128.16 68.32 127.52 68 126.88L69.28 126.08C69.6 127.04 70.4 127.52 71.52 127.52C72 127.52 72.48 127.36 72.8 127.2C73.12 127.04 73.28 126.72 73.28 126.4C73.28 126.08 73.12 125.76 72.8 125.6C72.48 125.44 72 125.28 71.2 124.96C70.72 124.8 70.4 124.8 70.08 124.64C69.76 124.48 69.6 124.32 69.28 124.16C68.96 124 68.8 123.68 68.64 123.36C68.48 123.04 68.48 122.72 68.48 122.24C68.48 121.44 68.8 120.8 69.28 120.32C69.92 119.84 70.56 119.68 71.36 119.68C72 119.68 72.64 119.84 73.28 120.16C73.76 120.48 74.24 120.96 74.56 121.6L73.28 122.24C72.96 121.44 72.32 120.96 71.36 120.96C70.88 120.96 70.56 121.12 70.4 121.28C70.08 121.44 70.08 121.76 70.08 122.08C70.08 122.4 70.24 122.72 70.4 122.88C70.72 123.04 71.2 123.2 71.84 123.52C72.16 123.68 72.48 123.68 72.64 123.84C72.8 123.84 72.96 124 73.28 124.16C73.6 124.32 73.76 124.32 73.92 124.48C74.08 124.64 74.24 124.8 74.4 124.96C74.56 125.12 74.72 125.28 74.72 125.6C74.72 125.76 74.88 126.08 74.88 126.4C74.88 127.2 74.56 127.84 74.08 128.32C73.28 128.8 72.48 129.12 71.52 129.12Z" fill="#44475B"/>
<path d="M85.603 120V121.44H83.043V128.96H81.603V121.44H79.043V120H85.603Z" fill="#00B386"/>
<path d="M92.0028 128.96L90.0828 125.76H88.3228V128.96H86.8828V120H90.4028C91.2028 120 91.8428 120.32 92.4828 120.8C92.9628 121.28 93.2828 122.08 93.2828 122.88C93.2828 123.52 93.1228 124 92.8028 124.48C92.4828 124.96 92.0028 125.28 91.5228 125.44L93.6028 128.96H92.0028ZM88.4828 121.44V124.48H90.5628C90.8828 124.48 91.3628 124.32 91.5228 124C91.8428 123.68 92.0028 123.36 92.0028 122.88C92.0028 122.4 91.8428 122.08 91.5228 121.76C91.2028 121.44 90.8828 121.28 90.5628 121.28H88.4828V121.44Z" fill="#00B386"/>
<path d="M100.802 128.96L100.162 127.2H96.322L95.682 128.96H94.082L97.282 120H99.202L102.402 128.96H100.802ZM96.962 125.76H99.842L98.402 121.76L96.962 125.76Z" fill="#00B386"/>
<path d="M107.204 120C108.484 120 109.444 120.48 110.244 121.28C111.044 122.08 111.524 123.2 111.524 124.48C111.524 125.76 111.044 126.72 110.244 127.68C109.444 128.64 108.484 128.96 107.204 128.96H103.684V120H107.204ZM107.204 127.52C108.004 127.52 108.804 127.2 109.284 126.72C109.764 126.24 110.084 125.44 110.084 124.48C110.084 123.52 109.764 122.88 109.284 122.24C108.804 121.6 108.004 121.44 107.204 121.44H105.124V127.52H107.204Z" fill="#00B386"/>
<path d="M114.561 127.52H118.561V128.96H113.121V120H118.401V121.44H114.561V123.68H118.081V125.12H114.561V127.52Z" fill="#00B386"/>
<path d="M59.3605 44.957V112.477H49.1205V55.677H32.4805V44.957H59.3605Z" fill="#00B386"/>
<path d="M88.6417 44.957V55.677H72.0017V99.197H61.7617V44.957H88.6417Z" fill="#00B386"/>
<path d="M121.439 88.1587C121.439 95.0387 119.039 100.799 114.239 105.439C109.439 110.079 103.519 112.479 96.4794 112.479H59.3594V101.759H96.4794C100.319 101.759 103.519 100.479 106.239 97.7588C108.799 95.0387 110.239 91.6787 110.239 87.8388C110.239 83.9988 108.959 80.6387 106.239 78.0787C103.519 75.3587 100.319 74.0787 96.6394 74.0787H86.8794V63.6787H94.2394C97.7594 63.6787 100.639 62.3988 103.039 59.8388C105.439 57.2788 106.719 54.2388 106.719 50.5588C106.719 46.8787 105.439 43.8387 103.039 41.2787C100.639 38.7187 97.7594 37.4387 94.2394 37.4387C94.0794 37.4387 94.0794 37.4387 93.9194 37.4387H59.3594V26.7188H93.7594C100.479 26.7188 106.239 28.9587 110.879 33.4387C115.519 37.9187 117.919 43.5187 117.919 50.0787C117.919 57.7587 114.879 63.6787 108.639 67.9987C112.639 69.9188 115.679 72.6387 118.079 76.1587C120.159 79.5187 121.439 83.5187 121.439 88.1587Z" fill="#44475B"/>
</svg>
